<svg width="120" height="35" viewBox="0 0 120 35" fill="none" xmlns="http://www.w3.org/2000/svg">
<path d="M23.4451 30.493L21.9653 30.493L19.052 23.4562L4.39306 23.4562L1.47977 30.493L7.0556e-07 30.493L10.9595 4.32349L12.4855 4.32349L23.4451 30.493ZM18.5896 22.3064L11.6994 5.79523L4.85549 22.3064L18.5896 22.3064Z" fill="black"/>
<path d="M48.4624 30.4925L46.7977 30.4925L36.8555 18.0286L26.9133 30.4925L25.2485 30.4925L36.1156 17.0628L25.8497 4.323L27.5607 4.323L36.8555 16.051L46.1503 4.323L47.8613 4.323L37.5491 17.0628L48.4624 30.4925Z" fill="black"/>
<path d="M54.1503 30.4925L52.9017 30.4925L52.9017 4.323L54.1503 4.323L54.1503 30.4925Z" fill="black"/>
<path d="M120 30.4925L118.335 30.4925L108.393 18.0287L98.451 30.4925L96.7863 30.4925L107.653 17.0628L97.3874 4.323L99.0984 4.323L108.393 16.051L117.688 4.323L119.399 4.323L109.133 17.0628L120 30.4925Z" fill="black"/>
<path d="M77.2254 11.0379C77.2254 10.8539 77.2716 10.6239 77.2716 10.44C77.3179 10.072 77.3179 9.70409 77.3179 9.33616C77.3179 9.1062 77.3641 8.87624 77.3641 8.64628C77.4104 8.23235 77.4104 7.77243 77.4566 7.3585C77.4566 7.08254 77.3641 6.80659 77.1329 6.62262C76.9479 6.48465 76.8092 6.34667 76.6243 6.1627C76.4393 5.97873 76.3468 5.79476 76.3468 5.5648C76.3468 5.28885 76.3006 4.96691 76.3006 4.69095C76.3006 4.23103 76.2543 3.77111 76.2543 3.31119C76.2543 2.75928 76.2081 2.25337 76.2081 1.70146C76.2081 1.14956 76.1618 0.551661 76.1618 -0.000244219C75.9769 -0.000244208 75.7457 -0.000244194 75.5607 -0.000244183C75.5144 -0.00024418 75.4682 0.045748 75.422 0.045748C75.2832 0.045748 75.1445 0.045748 75.0058 0.045748C74.9133 0.045748 74.8671 0.0917401 74.8671 0.183724C74.8671 0.229716 74.8671 0.275709 74.8671 0.367693C74.9133 0.827614 74.9596 1.28754 74.9596 1.74746C74.9596 1.97742 75.0058 2.20738 75.0058 2.43734C75.052 2.89726 75.0983 3.40317 75.1445 3.86309C75.1908 4.32302 75.237 4.82893 75.2832 5.28885C75.2832 5.42683 75.3295 5.51881 75.3295 5.65679C75.3757 5.97873 75.6069 6.1627 75.8844 6.39266C76.0231 6.53064 76.2081 6.62262 76.3468 6.7606C76.578 6.94457 76.7167 7.22052 76.7167 7.49647C76.7167 8.32433 76.763 9.19818 76.763 10.026C76.763 10.394 76.763 10.7159 76.763 11.0839C76.8555 11.0839 76.9479 11.0839 77.0404 11.0839C77.1329 11.0379 77.1792 11.0379 77.2254 11.0379Z" fill="black"/>
<path d="M73.3876 9.19808C73.2489 8.87613 73.1101 8.5082 72.9714 8.18625C72.8789 7.95629 72.6939 7.77232 72.4165 7.68034C72.2315 7.63435 72.0928 7.58835 71.9078 7.58835C71.5379 7.54236 71.3067 7.3124 71.1217 7.03645C70.8905 6.62252 70.6593 6.20859 70.428 5.79466C69.9194 4.87482 69.4107 3.90898 68.902 2.98914C68.7633 2.75918 68.6246 2.52922 68.5321 2.29926C68.5321 2.25327 68.4858 2.25327 68.4396 2.20728C68.3471 2.25327 68.3009 2.25327 68.2546 2.29926C68.0234 2.43724 67.7922 2.57521 67.561 2.71319C67.376 2.85117 67.3297 2.85116 67.4685 3.08113C67.8847 3.72502 68.2546 4.4149 68.6708 5.05879C69.1795 5.88665 69.6881 6.66851 70.1506 7.49637C70.3355 7.77232 70.613 7.95629 70.9367 8.00228C71.1217 8.04827 71.3529 8.09427 71.5379 8.09427C71.9078 8.14026 72.139 8.32423 72.324 8.69216C72.5552 9.15209 72.7864 9.56601 73.0176 10.0259C73.3413 10.6238 73.665 11.2677 73.9887 11.8656C74.1275 11.7736 74.2662 11.7276 74.4049 11.6817C74.035 10.8078 73.7113 9.97994 73.3876 9.19808Z" fill="black"/>
<path d="M82.682 24.2835C82.9595 24.6515 83.2369 24.9734 83.5606 25.3414C83.6994 25.5253 83.9306 25.6173 84.1618 25.6173C84.393 25.6173 84.6242 25.6173 84.8554 25.6173C85.1329 25.6173 85.3641 25.7093 85.5491 25.8933C85.7803 26.1232 86.0115 26.3532 86.1965 26.5372C86.5664 26.9051 86.9364 27.273 87.3063 27.595C87.9999 28.2849 88.6473 28.9288 89.341 29.6186C89.3872 29.6646 89.4334 29.7106 89.4334 29.7566C89.4797 29.7106 89.5259 29.6646 89.5722 29.6646C89.8034 29.3887 90.0346 29.1587 90.2658 28.8828C90.3121 28.8368 90.3121 28.7448 90.2658 28.6988C90.2196 28.6528 90.2196 28.6528 90.1733 28.6068C89.3872 27.9169 88.6473 27.227 87.8612 26.4912C87.445 26.0772 86.9826 25.7093 86.5664 25.2954C86.1965 24.9274 85.7803 24.7895 85.2716 24.8814C85.0866 24.9274 84.9017 24.9274 84.7167 24.9274C84.393 24.9734 84.1618 24.8355 83.9306 24.6055C83.7919 24.4215 83.6069 24.2836 83.4682 24.0996C83.1445 23.7776 82.867 23.4557 82.5433 23.1337C82.2196 22.7658 81.8497 22.3979 81.526 22.0759C81.4335 22.1679 81.2948 22.3059 81.2023 22.3979C81.7109 23.0418 82.2196 23.6397 82.682 24.2835Z" fill="black"/>
<path d="M83.3295 10.532C83.5145 10.3481 83.6532 10.1641 83.8382 9.98013C84.0231 9.75017 84.0694 9.52021 84.0231 9.24426C83.9769 9.10628 83.9769 8.9683 83.9307 8.78434C83.8382 8.46239 83.8844 8.14045 84.1156 7.86449C84.3468 7.58854 84.5781 7.2666 84.763 6.99064C85.1792 6.43874 85.5954 5.88683 86.0116 5.33493C86.4278 4.73703 86.8902 4.18513 87.3064 3.58723C87.3526 3.49524 87.3989 3.44925 87.2601 3.35727C86.9827 3.1733 86.7052 2.98933 86.4278 2.75937C86.4278 2.75937 86.3815 2.71338 86.3353 2.71338C86.289 2.71338 86.289 2.75937 86.2428 2.75937C86.1966 2.80536 86.1966 2.85135 86.1503 2.89735C85.6416 3.63322 85.133 4.41509 84.578 5.15096C84.1619 5.79485 83.6994 6.43874 83.2833 7.08263C83.1908 7.2206 83.1445 7.35858 83.052 7.49656C82.9596 7.72652 83.052 8.00247 83.0983 8.23243C83.1445 8.46239 83.1908 8.64636 83.237 8.87632C83.2833 9.10628 83.237 9.33624 83.052 9.5662C82.8671 9.79616 82.6821 10.0261 82.4971 10.2561C81.9422 10.992 81.341 11.6818 80.7861 12.4177C80.9249 12.5097 81.0173 12.6017 81.1561 12.6937C81.9884 11.9118 82.6821 11.2219 83.3295 10.532Z" fill="black"/>
<path d="M70.3356 20.6503C69.5032 21.0183 68.7171 21.3402 67.8847 21.7081C67.5148 21.8461 67.2835 22.1221 67.2373 22.536C67.2373 22.582 67.2373 22.674 67.1911 22.72C67.0986 23.1339 66.9598 23.5018 66.5436 23.6858C66.3587 23.7778 66.1737 23.8698 65.9887 24.0077C64.7402 24.7436 63.5379 25.4335 62.2893 26.1694C62.1506 26.2614 62.0119 26.3073 61.8731 26.3993C61.8269 26.4453 61.7807 26.4913 61.8269 26.5833C62.0119 26.8593 62.1968 27.1352 62.3818 27.4572C62.428 27.5491 62.5205 27.5491 62.613 27.5031C62.6593 27.5031 62.6593 27.4572 62.7055 27.4572C63.7228 26.8133 64.6939 26.1694 65.7113 25.5255C66.1275 25.2495 66.5899 24.9736 67.0061 24.6516C67.3298 24.4677 67.4685 24.1917 67.561 23.8238C67.6072 23.5478 67.6535 23.2719 67.6997 22.9959C67.746 22.8119 67.8385 22.628 68.0234 22.536C68.1622 22.444 68.3009 22.398 68.4396 22.306C69.4107 21.7541 70.3818 21.2022 71.3991 20.6963C71.3067 20.5583 71.2604 20.4204 71.2142 20.3284C70.9367 20.3744 70.613 20.5123 70.3356 20.6503Z" fill="black"/>
<path d="M70.5205 22.5819C70.0118 22.9499 69.5494 23.3178 69.0407 23.6857C68.7632 23.9157 68.6245 24.1917 68.6245 24.5136C68.6245 24.6516 68.6245 24.7436 68.6245 24.8815C68.6245 25.2035 68.5783 25.5254 68.347 25.7554C68.2546 25.8474 68.1621 25.9394 68.0696 26.0313C67.4222 26.6292 66.7748 27.2271 66.1274 27.825C65.5262 28.3769 64.9713 28.9288 64.3701 29.4808C64.2777 29.5727 64.2777 29.6187 64.3701 29.6647C64.6476 29.8947 64.8788 30.1706 65.1563 30.4006C65.1563 30.4006 65.2025 30.4006 65.2025 30.4466C65.2025 30.4466 65.2488 30.4466 65.2488 30.4006C65.295 30.3546 65.3412 30.3086 65.3875 30.2626C66.0811 29.5267 66.821 28.7909 67.5147 28.101C67.9771 27.5951 68.4395 27.1352 68.902 26.6292C69.0869 26.4453 69.2257 26.2613 69.2257 25.9854C69.2257 25.8014 69.2257 25.5714 69.2257 25.3875C69.2257 25.2035 69.1794 25.0195 69.1794 24.8355C69.1794 24.6516 69.2257 24.4676 69.3644 24.3296C69.5494 24.1457 69.7806 23.9617 69.9655 23.7777C70.7054 23.0878 71.4453 22.444 72.1852 21.7541C72.0927 21.6621 72.0002 21.5241 71.9078 21.4321C71.4916 21.8461 71.0291 22.214 70.5205 22.5819Z" fill="black"/>
<path d="M84.4394 12.3256C84.7631 12.0956 85.0868 11.8656 85.4567 11.6357C85.6417 11.4977 85.7342 11.3137 85.7342 11.0378C85.7342 10.8538 85.7804 10.6238 85.7804 10.4399C85.7804 10.1179 85.9192 9.88797 86.1504 9.704C86.7053 9.24408 87.214 8.78416 87.7689 8.32423C88.185 7.9563 88.6012 7.58836 89.0637 7.26641C89.4798 6.94447 89.896 6.57653 90.266 6.25459C90.4047 6.1626 90.4047 6.11661 90.266 5.97863C90.1272 5.79467 89.9423 5.6107 89.7573 5.42673C89.4798 5.15078 89.4798 5.15078 89.2024 5.38074C88.6012 5.93264 88.0001 6.48455 87.3989 7.03645C87.1215 7.26641 86.844 7.49638 86.6128 7.77233C86.2429 8.14027 85.8729 8.46221 85.503 8.83015C85.2718 9.06011 85.1793 9.29007 85.1793 9.61201C85.1793 9.84198 85.1793 10.1179 85.1793 10.3479C85.1793 10.6698 85.0406 10.9458 84.7631 11.1757C84.7169 11.2217 84.6244 11.2677 84.5781 11.3137C83.7458 12.0036 82.8672 12.6475 82.0348 13.3374C82.1273 13.4754 82.2198 13.5673 82.3122 13.7053C83.0059 13.2454 83.7458 12.7855 84.4394 12.3256Z" fill="black"/>
<path d="M81.2485 25.8934C81.3873 26.1234 81.526 26.3993 81.6185 26.6293C81.7572 26.8592 81.9422 26.9512 82.1734 26.9972C82.3121 27.0432 82.4509 27.0432 82.5896 27.0432C82.9595 27.0892 83.2832 27.2732 83.4682 27.5951C83.9769 28.469 84.5318 29.2968 85.0867 30.1247C85.5029 30.7686 85.8728 31.4125 86.289 32.0563C86.3815 32.2403 86.4277 32.2403 86.5665 32.1483C86.8439 31.9644 87.0751 31.7804 87.3526 31.5964C87.3988 31.5504 87.4451 31.5044 87.4451 31.4584C87.3988 31.4125 87.3988 31.3665 87.3526 31.3205C87.2139 31.1365 87.1214 30.9525 86.9827 30.7686C86.474 30.0787 86.0115 29.3428 85.5029 28.6529C85.1329 28.101 84.763 27.5951 84.3931 27.0432C84.1618 26.7213 83.8844 26.5833 83.4682 26.5373C83.1907 26.4913 82.867 26.4453 82.5896 26.3533C82.4046 26.3073 82.2659 26.1693 82.1734 25.9854C82.0809 25.8474 81.9884 25.7094 81.8959 25.5255C81.3873 24.6516 80.8324 23.7778 80.3237 22.8579C80.185 22.9499 80.0462 22.9959 79.9537 23.0879C80.4162 24.0997 80.8324 25.0195 81.2485 25.8934Z" fill="black"/>
<path d="M72.9712 22.5359C72.4625 23.1338 72.0001 23.6857 71.4914 24.2836C71.214 24.6515 70.8903 25.0195 70.6128 25.3874C70.4279 25.6174 70.3354 25.8933 70.4279 26.1693C70.4741 26.3072 70.4741 26.3992 70.5203 26.5372C70.5666 26.6752 70.5666 26.8132 70.6128 26.9511C70.6128 27.1811 70.5203 27.411 70.3816 27.595C69.4105 29.0668 68.4394 30.5385 67.4683 32.0103C67.3296 32.1942 67.3296 32.1942 67.5608 32.3322C67.8383 32.4702 68.1157 32.6082 68.3469 32.7921C68.4394 32.8381 68.4857 32.8381 68.5782 32.7461C68.6244 32.7001 68.6244 32.6541 68.6706 32.6082C68.9943 32.0562 69.318 31.5503 69.6417 30.9984C70.1966 30.0786 70.7053 29.1587 71.2602 28.2849C71.4452 27.963 71.4914 27.641 71.3527 27.3191C71.2602 27.0891 71.214 26.8132 71.1215 26.5832C71.0752 26.3072 71.0753 26.0773 71.2602 25.8473C71.3989 25.6633 71.5377 25.4334 71.6764 25.2494C72.2313 24.4676 72.7862 23.6397 73.3411 22.8578C73.2486 22.6739 73.1562 22.5819 72.9712 22.5359C73.0174 22.5359 73.0174 22.5359 72.9712 22.5359Z" fill="black"/>
<path d="M71.7225 13.1076C71.1214 12.5557 70.5202 12.0498 69.9191 11.4979C69.6879 11.3139 69.5029 11.13 69.2717 10.946C68.9942 10.716 68.7168 10.67 68.3931 10.762C68.2543 10.808 68.0694 10.854 67.9306 10.854C67.6532 10.9 67.422 10.9 67.1445 10.716C66.4509 10.2101 65.711 9.70421 65.0173 9.24428C64.2312 8.69238 63.4451 8.14047 62.7052 7.58857C62.659 7.54257 62.6127 7.54257 62.5665 7.49658C62.5665 7.54257 62.5202 7.58857 62.5202 7.58857C62.3353 7.86452 62.1503 8.18646 61.9653 8.46242C61.9191 8.5544 61.9191 8.60039 62.0116 8.64639C62.1965 8.78436 62.3815 8.92234 62.6127 9.01432C63.0751 9.29028 63.5376 9.61222 64.0462 9.88817C64.8324 10.3941 65.6185 10.9 66.4046 11.4059C66.7283 11.6359 67.0983 11.6819 67.4682 11.5439C67.6994 11.4519 67.9769 11.4059 68.2081 11.3599C68.4855 11.3139 68.7168 11.3599 68.9017 11.5439C69.8728 12.2798 70.8902 13.0156 71.8613 13.7515C71.9537 13.6135 72.0462 13.5216 72.1387 13.3836C71.9537 13.2916 71.815 13.1996 71.7225 13.1076Z" fill="black"/>
<path d="M71.1677 9.6122C71.0752 9.47423 70.9365 9.33625 70.844 9.19828C70.7053 9.01431 70.474 8.96832 70.2891 8.96832C70.1041 8.96832 69.9654 8.96832 69.7804 8.96832C69.4105 8.96832 69.133 8.83034 68.8555 8.55439C68.3006 7.95649 67.7457 7.3126 67.1908 6.7147C66.7746 6.25478 66.4047 5.84085 65.9885 5.38093C65.7573 5.10498 65.526 4.82902 65.2486 4.59906C65.2023 4.55307 65.2023 4.55307 65.1561 4.50708C65.1099 4.50708 65.1099 4.50708 65.1099 4.55307C64.8324 4.82902 64.5549 5.05899 64.3237 5.33494C64.3237 5.38093 64.3237 5.42692 64.3237 5.47291C64.3237 5.51891 64.4162 5.5649 64.4162 5.61089C65.2023 6.43875 65.9885 7.22061 66.8208 8.04847C67.237 8.4624 67.6532 8.87633 68.0232 9.29026C68.2544 9.52022 68.5318 9.6122 68.8555 9.6122C69.0405 9.6122 69.1792 9.56621 69.3642 9.56621C69.7342 9.56621 70.1041 9.6122 70.3816 9.93415C70.659 10.2561 70.9365 10.578 71.2139 10.9C71.7226 11.4979 72.2313 12.0958 72.7862 12.6937C72.8787 12.6017 73.0174 12.5097 73.1099 12.4177C72.4625 11.4519 71.8151 10.532 71.1677 9.6122Z" fill="black"/>
<path d="M73.0635 25.5715C72.8786 25.8934 72.7398 26.2614 72.5549 26.6293C72.4161 26.9053 72.4624 27.1812 72.6011 27.4572C72.6936 27.5951 72.7398 27.7791 72.8323 27.9171C72.971 28.193 72.971 28.469 72.8786 28.7449C72.5549 29.5728 72.2774 30.4007 71.9537 31.2285C71.63 32.1024 71.3063 32.9302 70.9826 33.8041C70.9364 33.9421 70.9364 33.988 71.0751 34.034C71.3526 34.126 71.63 34.218 71.9075 34.31C72.1849 34.402 72.1387 34.448 72.2774 34.126C72.5086 33.4361 72.6936 32.7923 72.9248 32.1024C73.2022 31.1825 73.5259 30.2627 73.8034 29.3428C73.9421 28.9289 73.8959 28.561 73.6647 28.239C73.5259 28.0551 73.4335 27.8711 73.341 27.6411C73.2485 27.4112 73.2022 27.2272 73.2947 26.9512C73.3872 26.6753 73.4797 26.3993 73.6184 26.1694C73.9884 25.2955 74.3121 24.3757 74.682 23.5018C74.5433 23.4558 74.4046 23.3639 74.2658 23.3179C73.8496 24.0537 73.4797 24.8356 73.0635 25.5715Z" fill="black"/>
<path d="M75.7457 10.9919C75.607 10.1641 75.4683 9.29023 75.3295 8.46237C75.2833 8.14043 75.237 7.81848 75.1446 7.49654C75.0983 7.22059 74.9596 6.99063 74.6821 6.85265C74.5434 6.76067 74.4047 6.71467 74.266 6.66868C73.9423 6.5307 73.711 6.25475 73.6186 5.88682C73.4336 5.19693 73.2486 4.55304 73.0636 3.86316C72.7862 2.85134 72.4625 1.79352 72.185 0.781692C72.1388 0.597723 72.1388 0.597723 71.9538 0.643715C71.6301 0.735699 71.3527 0.827684 71.029 0.96566C70.9365 1.01165 70.8902 1.05764 70.9365 1.14963C70.9365 1.19562 70.9827 1.24161 70.9827 1.2876C71.3989 2.57538 71.8151 3.81717 72.2313 5.10495C72.3238 5.42689 72.4625 5.74884 72.555 6.07078C72.6937 6.43872 72.9249 6.71467 73.2949 6.85265C73.4336 6.89864 73.5723 6.94463 73.711 7.03662C74.0347 7.17459 74.3584 7.35856 74.4509 7.77249C74.4972 8.09444 74.5897 8.37039 74.6821 8.69233C74.9134 9.56618 75.0983 10.394 75.3295 11.2679C75.4683 11.2219 75.607 11.1759 75.7457 11.1759C75.7457 11.1299 75.7457 11.0379 75.7457 10.9919Z" fill="black"/>
<path d="M80.1851 11.6357C80.6937 10.7619 81.2486 9.84205 81.7573 8.9682C81.8498 8.83022 81.896 8.64625 81.9885 8.46228C82.0348 8.32431 82.0348 8.14034 81.9885 8.00236C81.896 7.81839 81.8498 7.58843 81.7573 7.40446C81.5723 7.08252 81.6186 6.76057 81.7573 6.43863L81.7573 6.39264C82.3585 5.05887 82.9596 3.6791 83.5608 2.34533C83.6533 2.06938 83.792 1.83942 83.8845 1.56346C83.9307 1.42549 83.9307 1.3795 83.792 1.3335C83.5608 1.24152 83.3296 1.14954 83.0521 1.05755C82.7746 0.919575 82.7746 0.919575 82.6359 1.24152C82.0348 2.80525 81.4336 4.32299 80.8325 5.88672C80.6937 6.20867 80.6937 6.57661 80.8787 6.89855C81.0174 7.12851 81.1099 7.35847 81.2024 7.58843C81.3411 7.86438 81.2949 8.14034 81.1562 8.41629C80.7862 9.15216 80.4625 9.84205 80.1388 10.5779C80.0001 10.8999 79.8151 11.2678 79.6764 11.5897C79.8151 11.6357 79.9538 11.7277 80.0926 11.7737C80.1388 11.7277 80.1388 11.6817 80.1851 11.6357Z" fill="black"/>
<path d="M69.873 13.8894C69.2256 13.5675 68.6244 13.1995 67.977 12.8776C67.6533 12.7396 67.3758 12.7396 67.0521 12.8776C66.9134 12.9696 66.7284 13.0156 66.5897 13.1076C66.3585 13.1995 66.1735 13.2455 65.9423 13.1535C65.6649 13.0616 65.4336 12.9696 65.1562 12.8776C64.2776 12.5557 63.4452 12.1877 62.5666 11.8198C61.9654 11.5898 61.3643 11.3599 60.8094 11.0839C60.6244 11.0379 60.6244 11.0379 60.5319 11.1759C60.4394 11.4978 60.3007 11.7738 60.2082 12.0957C60.162 12.1877 60.2082 12.2337 60.3007 12.2797C60.6244 12.3717 60.9018 12.5097 61.2255 12.6016C62.5666 13.0616 63.8614 13.5215 65.2024 13.9814C65.5724 14.1194 65.9423 14.0734 66.266 13.8894C66.451 13.7974 66.636 13.7055 66.8209 13.6135C67.0984 13.4755 67.4221 13.4295 67.7458 13.6135C67.977 13.7055 68.2082 13.7974 68.3932 13.8894C69.2718 14.2574 70.1504 14.6713 71.029 15.0392C71.0753 14.9012 71.1678 14.7633 71.214 14.6253C70.7978 14.3493 70.3354 14.1194 69.873 13.8894Z" fill="black"/>
<path d="M79.0752 25.9394C79.1677 26.3994 79.3064 26.8593 79.3989 27.3192C79.4914 27.6411 79.6763 27.8711 80.0463 28.0091C80.2312 28.0551 80.37 28.1471 80.5549 28.239C80.6937 28.331 80.8324 28.423 80.8786 28.561C80.9711 28.7909 81.0636 29.0209 81.1561 29.2509C81.5723 30.4467 81.9885 31.6885 82.4509 32.8842C82.5434 33.2062 82.6821 33.5281 82.7746 33.8961C82.8208 33.9881 82.8208 34.034 82.9133 33.9881C83.237 33.8501 83.607 33.7121 83.9307 33.5741C83.9769 33.5741 83.9769 33.5281 84.0231 33.5281C83.9769 33.4362 83.9769 33.3442 83.9307 33.2982C83.607 32.4703 83.2833 31.6885 82.9596 30.8606C82.6359 30.0787 82.3122 29.2509 81.9885 28.469C81.9422 28.331 81.8497 28.239 81.7573 28.1011C81.6185 27.9171 81.3873 27.8251 81.1561 27.7791C80.9711 27.6871 80.7862 27.6411 80.5549 27.5492C80.3237 27.4572 80.1388 27.2732 80.0463 27.0432C79.9538 26.8133 79.9075 26.5833 79.8151 26.3074C79.5376 25.3875 79.2139 24.4677 78.9364 23.5479C78.7977 23.5938 78.659 23.6398 78.5203 23.6398C78.7515 24.4677 78.8902 25.2036 79.0752 25.9394Z" fill="black"/>
<path d="M68.948 19.2247C68.3006 19.3627 67.6994 19.5006 67.052 19.5926C66.7283 19.6386 66.4971 19.8226 66.3584 20.1445C66.2659 20.3285 66.1734 20.5125 66.0809 20.6964C65.9884 20.9264 65.7572 21.0644 65.526 21.1564C65.4335 21.2023 65.341 21.2023 65.2485 21.2483C64.1387 21.6163 62.9826 21.9382 61.8728 22.3062C61.3641 22.4441 60.8555 22.6281 60.3468 22.7661C60.1618 22.8121 60.1618 22.8581 60.2081 22.996C60.3005 23.318 60.4393 23.6399 60.5318 23.9159C60.578 24.0079 60.6243 24.0079 60.7167 24.0079C60.9017 23.9619 61.0867 23.8699 61.2716 23.8239C62.7514 23.318 64.1849 22.7661 65.6647 22.2602C66.0347 22.1222 66.2659 21.8922 66.4046 21.5243C66.4971 21.2943 66.6358 21.0184 66.7283 20.7884C66.8208 20.5585 67.0058 20.4205 67.237 20.3745C67.3295 20.3285 67.4682 20.3285 67.5607 20.2825C68.6243 19.9606 69.6878 19.6846 70.7977 19.3627C70.7977 19.3627 70.7977 19.3627 70.8439 19.3627C70.7977 19.2247 70.7514 19.0867 70.7514 18.9487C70.1503 18.9947 69.5491 19.0867 68.948 19.2247Z" fill="black"/>
<path d="M77.0864 26.813C77.0864 27.043 77.0864 27.273 77.0864 27.5029C77.0864 27.9168 77.2252 28.2848 77.6413 28.4687C77.6876 28.4687 77.7338 28.5147 77.7338 28.5607C78.0575 28.7907 78.335 29.0666 78.335 29.5266C78.335 29.7105 78.3812 29.8945 78.3812 30.0785C78.4275 30.5384 78.4737 30.9523 78.52 31.4122C78.5662 31.8262 78.6124 32.2861 78.6587 32.7C78.7049 33.1599 78.7512 33.6199 78.7974 34.0798C78.8436 34.3097 78.8437 34.5857 78.8437 34.8157C78.8437 34.9536 78.8899 34.9536 79.0286 34.9536C79.3523 34.9076 79.6298 34.8617 79.9535 34.8157C80.1384 34.7697 80.1385 34.7697 80.1385 34.5857C80.0922 34.2638 80.046 33.9878 79.9997 33.6659C79.9072 33.022 79.8148 32.3781 79.676 31.6882C79.5835 30.9063 79.4448 30.1705 79.3523 29.3886C79.3061 29.0207 79.1211 28.7447 78.7974 28.5607C78.5662 28.4228 78.3812 28.2848 78.1963 28.1468C77.965 27.9628 77.8263 27.7329 77.8263 27.4569C77.7801 27.043 77.7338 26.5831 77.7338 26.1691C77.6876 25.4333 77.6413 24.6974 77.5489 23.9155C77.4101 23.9155 77.2252 23.9155 77.0864 23.9155C77.0864 24.8814 77.0864 25.8472 77.0864 26.813Z" fill="black"/>
<path d="M79.0291 10.21C79.2603 9.47413 79.4915 8.69226 79.7227 7.95639C79.8615 7.54246 79.8152 7.17452 79.4915 6.80658C79.3528 6.66861 79.2603 6.53063 79.1678 6.34666C79.0754 6.16269 79.0291 5.97872 79.0754 5.74876C79.2141 5.10487 79.3066 4.46098 79.4453 3.81709C79.584 2.98924 79.769 2.16138 79.9077 1.33352C79.954 1.01157 80.0464 0.689628 80.0927 0.413675C80.0927 0.275698 80.0927 0.183714 79.954 0.183714C79.6765 0.137722 79.3991 0.0917299 79.1678 0.0917299C79.0754 0.09173 78.9366 0.0457378 78.8904 0.09173C78.8442 0.137722 78.7979 0.275699 78.7979 0.367683C78.7517 0.781612 78.6592 1.24153 78.6129 1.65546C78.5205 2.25336 78.428 2.80527 78.3355 3.40316C78.243 4.00106 78.1505 4.59896 78.058 5.19686C78.0118 5.65678 78.058 6.02472 78.3817 6.39265C78.5205 6.57662 78.6592 6.7146 78.7979 6.89857C78.9366 7.12853 79.0291 7.35849 78.9366 7.58845C78.6592 8.78425 78.428 9.93405 78.1968 11.1298C78.3355 11.1758 78.4742 11.1758 78.6129 11.2218C78.7979 10.8999 78.9366 10.5319 79.0291 10.21Z" fill="black"/>
<path d="M75.5606 24.1458C75.3294 25.1576 75.0519 26.1234 74.8207 27.1353C74.7744 27.3652 74.6819 27.5952 74.7744 27.8251C74.8207 28.0091 74.9594 28.1471 75.0981 28.331C75.2369 28.469 75.3756 28.653 75.4681 28.837C75.5606 28.9749 75.6068 29.1129 75.5606 29.2509C75.5143 29.8488 75.4218 30.4927 75.3294 31.0906C75.2831 31.5505 75.1906 32.0564 75.1444 32.5163C75.0981 32.8843 75.0519 33.2522 75.0057 33.6201C74.9594 33.9881 74.9132 34.31 74.8669 34.678C74.8207 34.9079 74.8669 34.9079 75.0981 34.9539C75.3756 34.9999 75.6531 34.9999 76.023 34.9999C76.1617 34.9999 76.1617 34.9999 76.1617 34.7699C76.208 34.31 76.2542 33.8961 76.2542 33.4362C76.3005 32.8843 76.3467 32.3324 76.393 31.8264C76.393 31.5505 76.4392 31.3205 76.4392 31.0446C76.4855 30.4927 76.4854 29.9868 76.5317 29.4349C76.5317 29.2509 76.4854 29.1129 76.393 28.9749C76.3005 28.837 76.208 28.745 76.0693 28.607C75.9305 28.423 75.7918 28.2851 75.6531 28.1011C75.5143 27.9171 75.4218 27.6872 75.4681 27.4572C75.5606 26.8133 75.6531 26.1234 75.7456 25.4795C75.838 24.9276 75.9305 24.4217 75.9768 23.8698C75.838 23.8698 75.6993 23.8238 75.5606 23.7778C75.6068 23.8698 75.6068 24.0078 75.5606 24.1458Z" fill="black"/>
<path d="M70.6127 17.4309C70.289 17.4309 70.0115 17.385 69.6878 17.385C69.1792 17.385 68.6705 17.339 68.1618 17.339C67.7456 17.339 67.2832 17.293 66.867 17.293C66.5433 17.293 66.2196 17.385 66.0347 17.6609C65.9422 17.7989 65.8497 17.9369 65.7572 18.0288C65.5722 18.2588 65.341 18.3968 65.0173 18.4428C64.6012 18.4888 64.185 18.5347 63.7688 18.5347C63.0289 18.5807 62.289 18.6267 61.5491 18.7187C60.9017 18.7647 60.2543 18.8107 59.6532 18.8567C59.4682 18.8567 59.422 18.9027 59.4682 19.0867C59.5145 19.3626 59.5607 19.6386 59.5607 19.9605C59.5607 20.1445 59.6069 20.1445 59.7919 20.1445C60.0231 20.0985 60.2543 20.0985 60.5318 20.0525C61.2254 19.9605 61.9653 19.9145 62.659 19.8225C63.3526 19.7305 64.0925 19.6386 64.7861 19.5466C65.2023 19.5006 65.5722 19.3166 65.8035 18.9487C65.8497 18.8567 65.8959 18.7647 65.9884 18.6727C66.0809 18.5347 66.2196 18.3968 66.3121 18.3048C66.4509 18.1208 66.6358 18.0748 66.867 18.0748C67.6532 18.0288 68.4393 17.9828 69.2254 17.9828C69.6878 17.9828 70.104 17.9369 70.5665 17.9369C70.5665 17.7989 70.5665 17.6609 70.5665 17.5689C70.6127 17.4769 70.6127 17.4309 70.6127 17.4309Z" fill="black"/>
<path d="M67.7919 15.1772C67.5607 15.1312 67.3295 15.0852 67.0982 14.9933C66.8208 14.9473 66.6358 14.9933 66.4046 15.1312C66.2659 15.2232 66.1734 15.3152 66.0347 15.4072C65.8497 15.5452 65.6185 15.7291 65.3872 15.7291C65.2023 15.7291 65.0173 15.6831 64.8323 15.6831C64.3237 15.5912 63.8612 15.5452 63.3526 15.4532C62.6589 15.3612 61.9653 15.2232 61.3179 15.1312C60.8092 15.0393 60.3005 14.9473 59.7919 14.9013C59.6069 14.8553 59.6069 14.9013 59.6069 15.0393C59.5606 15.3612 59.5606 15.6831 59.5144 15.9591C59.5144 16.0511 59.5144 16.1431 59.6531 16.1431C59.8843 16.1891 60.1156 16.1891 60.393 16.2351C60.8092 16.281 61.2716 16.327 61.6878 16.373C62.104 16.419 62.474 16.465 62.8901 16.511C63.3063 16.557 63.7225 16.603 64.1387 16.649C64.4624 16.695 64.7861 16.695 65.0636 16.741C65.3873 16.787 65.6185 16.649 65.8497 16.465C66.0346 16.281 66.2196 16.1431 66.4508 15.9591C66.6358 15.8211 66.867 15.7291 67.1445 15.7751C67.4682 15.8211 67.7919 15.8671 68.1156 15.9591C68.9942 16.1431 69.9191 16.281 70.7977 16.465C70.8439 16.327 70.8439 16.1891 70.8902 16.0051C69.7803 15.6831 68.763 15.4072 67.7919 15.1772Z" fill="black"/>
<path d="M83.7921 14.3494C84.6245 13.9814 85.4106 13.6595 86.243 13.2915C86.6129 13.1536 86.8441 12.8776 86.8904 12.4637C86.8904 12.4177 86.8904 12.3257 86.9366 12.2797C87.0291 11.8658 87.1678 11.4978 87.584 11.3139C87.769 11.2219 87.954 11.1299 88.1389 10.9919C89.3875 10.256 90.5898 9.56617 91.8384 8.83029C91.9771 8.73831 92.1158 8.69232 92.2546 8.60033C92.3008 8.55434 92.347 8.50835 92.3008 8.41636C92.1158 8.14041 91.9309 7.86446 91.7459 7.54251C91.6996 7.45053 91.6072 7.45053 91.5147 7.49652C91.4684 7.49652 91.4684 7.54251 91.4222 7.54251C90.4048 8.1864 89.4337 8.83029 88.4164 9.47418C88.0002 9.75013 87.5378 10.0261 87.1216 10.348C86.7979 10.532 86.6592 10.808 86.5667 11.1759C86.5204 11.4518 86.4742 11.7278 86.428 12.0038C86.3817 12.1877 86.2892 12.3717 86.1043 12.4637C85.9655 12.5557 85.8268 12.6016 85.6881 12.6936C84.717 13.2455 83.7459 13.7515 82.7748 14.3034C82.8673 14.4413 82.9135 14.5793 82.9597 14.7173C83.191 14.5793 83.4684 14.4873 83.7921 14.3494Z" fill="black"/>
<path d="M82.4046 21.8921C83.0057 22.444 83.6069 22.9499 84.208 23.5018C84.4393 23.6858 84.6242 23.8697 84.8554 24.0537C85.1329 24.2837 85.4104 24.3297 85.734 24.2377C85.8728 24.1917 86.0577 24.1457 86.1965 24.1457C86.4739 24.0997 86.7051 24.0997 86.9826 24.2837C87.6762 24.7896 88.4161 25.2955 89.1098 25.7554C89.8959 26.3073 90.682 26.8592 91.4219 27.4111C91.4681 27.4571 91.5144 27.4571 91.5606 27.5031C91.5606 27.4571 91.6069 27.4111 91.6069 27.4111C91.7918 27.1352 91.9768 26.8132 92.1618 26.5373C92.208 26.4453 92.208 26.3993 92.1155 26.3533C91.9306 26.2153 91.7456 26.0774 91.5144 25.9854C91.0519 25.7094 90.5895 25.3875 90.0809 25.1115C89.2947 24.6056 88.5086 24.0997 87.7225 23.5938C87.3988 23.3638 87.0288 23.3178 86.6589 23.4558C86.4277 23.5478 86.1502 23.5938 85.919 23.6398C85.6416 23.6858 85.4104 23.6398 85.2254 23.4558C84.2543 22.7199 83.2369 21.9841 82.2659 21.2942C82.1734 21.4322 82.0809 21.5241 81.9884 21.6621C82.1734 21.7081 82.2659 21.8001 82.4046 21.8921Z" fill="black"/>
<path d="M84.208 21.1103C84.8554 21.4322 85.4565 21.8001 86.1039 22.1221C86.4276 22.2601 86.7051 22.2601 87.0288 22.1221C87.1675 22.0301 87.3525 21.9841 87.4912 21.8921C87.7224 21.8001 87.9074 21.7541 88.1386 21.8461C88.4161 21.9381 88.6473 22.0301 88.9247 22.1221C89.8033 22.444 90.6357 22.812 91.5143 23.1799C92.1155 23.4099 92.7166 23.6398 93.2715 23.9158C93.4565 23.9618 93.4565 23.9618 93.549 23.8238C93.6415 23.5018 93.7802 23.2259 93.8727 22.9039C93.9189 22.812 93.8727 22.766 93.7802 22.72C93.4565 22.628 93.179 22.49 92.8553 22.398C91.5143 21.9381 90.2195 21.4782 88.8785 21.0183C88.5085 20.8803 88.1386 20.9263 87.8149 21.1103C87.6299 21.2022 87.445 21.2942 87.26 21.3862C86.9825 21.5242 86.6588 21.5702 86.3351 21.3862C86.1039 21.2942 85.8727 21.2022 85.6877 21.1103C84.8091 20.7423 83.9305 20.3744 83.0519 19.9604C83.0057 20.0984 82.9132 20.2364 82.8669 20.3744C83.2831 20.6043 83.7456 20.8803 84.208 21.1103Z" fill="black"/>
<path d="M85.1329 15.7751C85.7804 15.6372 86.3815 15.4992 87.0289 15.4072C87.3526 15.3612 87.5838 15.1772 87.7226 14.8553C87.815 14.6713 87.9075 14.4873 88 14.3034C88.0925 14.0734 88.3237 13.9354 88.5549 13.8435C88.6474 13.7975 88.7399 13.7975 88.8324 13.7515C89.9422 13.3835 91.0983 13.0616 92.2081 12.6937C92.7168 12.5557 93.2255 12.3717 93.7341 12.2337C93.9191 12.1877 93.9191 12.1417 93.8729 12.0038C93.7804 11.6818 93.6417 11.3599 93.5492 11.0839C93.5029 10.9919 93.4567 10.9919 93.3642 10.9919C93.1792 11.0379 92.9943 11.1299 92.8093 11.1759C91.3295 11.6818 89.896 12.2337 88.4162 12.7396C88.0463 12.8776 87.815 13.1076 87.6763 13.4755C87.5838 13.7055 87.4451 13.9814 87.3526 14.2114C87.2601 14.4414 87.0752 14.5793 86.8439 14.6253C86.7515 14.6713 86.6127 14.6713 86.5202 14.7173C85.4567 15.0393 84.3931 15.3152 83.3295 15.6372C83.3757 15.7751 83.422 15.9131 83.422 16.0511C83.9769 16.0051 84.578 15.8671 85.1329 15.7751Z" fill="black"/>
<path d="M83.5143 17.5688C83.7917 17.5688 84.1154 17.6148 84.3929 17.6148C84.9016 17.6148 85.4102 17.6608 85.9189 17.6608C86.3351 17.6608 86.7975 17.7067 87.2137 17.7067C87.5374 17.7067 87.8611 17.6148 88.0461 17.3388C88.1386 17.2008 88.231 17.0629 88.3235 16.9709C88.5085 16.7409 88.7397 16.6029 89.0634 16.5569C89.4796 16.5109 89.8958 16.465 90.312 16.465C91.0519 16.419 91.7917 16.373 92.5316 16.281C93.179 16.235 93.8264 16.189 94.4276 16.143C94.6126 16.143 94.6588 16.097 94.6126 15.913C94.5663 15.6371 94.5201 15.3611 94.5201 15.0392C94.5201 14.8552 94.4738 14.8552 94.2889 14.8552C94.0576 14.9012 93.8264 14.9012 93.549 14.9472C92.8553 15.0392 92.1154 15.0852 91.4218 15.1772C90.7282 15.2692 89.9883 15.3611 89.2946 15.4531C88.8784 15.4991 88.5085 15.6831 88.2773 16.051C88.231 16.143 88.1848 16.235 88.0923 16.327C87.9998 16.465 87.8611 16.6029 87.7686 16.6949C87.6299 16.8789 87.4449 16.9249 87.2137 16.9249C86.4276 16.9709 85.6414 17.0169 84.8553 17.0169C84.4391 17.0169 83.9767 17.0629 83.5605 17.0629C83.5605 17.2008 83.5605 17.2928 83.5605 17.4308C83.5143 17.5228 83.5143 17.5228 83.5143 17.5688Z" fill="black"/>
<path d="M94.5202 18.8104C94.289 18.7644 94.0578 18.7644 93.7803 18.7184C93.3641 18.6724 92.9017 18.6265 92.4855 18.5805C92.1156 18.5345 91.6994 18.4885 91.2832 18.4425C90.867 18.3965 90.4508 18.3505 90.0346 18.3045C89.7109 18.2585 89.3872 18.2585 89.1098 18.2125C88.7861 18.1665 88.5549 18.3045 88.3237 18.4885C88.1387 18.6724 87.9537 18.8104 87.7225 18.9944C87.5375 19.1324 87.3063 19.2244 87.0289 19.1784C86.7052 19.1324 86.3815 19.0864 86.0578 18.9944C85.1792 18.8104 84.3005 18.6724 83.3757 18.4885C83.3294 18.6265 83.3294 18.7644 83.2832 18.9484C84.2543 19.2244 85.2716 19.5003 86.2427 19.7763C86.474 19.8223 86.7052 19.8682 86.9364 19.9602C87.2138 20.0062 87.3988 19.9602 87.63 19.8223C87.7687 19.7303 87.8612 19.6383 88 19.5463C88.1849 19.4083 88.4161 19.2244 88.6474 19.2244C88.8323 19.2244 89.0173 19.2703 89.2023 19.2703C89.7109 19.3623 90.1734 19.4083 90.682 19.5003C91.3757 19.5923 92.0693 19.7303 92.7167 19.8223C93.2254 19.9142 93.7341 20.0062 94.2427 20.0522C94.4277 20.0982 94.4277 20.0522 94.4277 19.9142C94.4739 19.5923 94.4739 19.2703 94.5202 18.9944C94.6589 18.9024 94.6589 18.8104 94.5202 18.8104Z" fill="black"/>
</svg>
