<svg width="117" height="120" viewBox="0 0 117 120" fill="none" xmlns="http://www.w3.org/2000/svg">
<g clip-path="url(#clip0_111_835)">
<path d="M98.5538 83.3527C101.664 83.3527 103.969 82.3107 105.469 80.2266C106.962 78.1449 107.708 75.0911 107.704 71.0652C107.701 67.0394 106.955 63.9746 105.469 61.8709C103.973 59.7625 101.668 58.7084 98.5538 58.7084C95.3944 58.7084 93.0613 59.7666 91.5543 61.883C90.0473 63.9995 89.2934 67.0608 89.2926 71.067C89.2926 75.0654 90.0465 78.1109 91.5543 80.2035C93.0621 82.296 95.3952 83.3457 98.5538 83.3527ZM98.5538 51.8375C101.349 51.8375 103.885 52.2856 106.161 53.1819C108.437 54.0782 110.373 55.3504 111.969 56.9985C113.573 58.6461 114.812 60.6575 115.687 63.0326C116.562 65.4077 117 68.061 117 70.9924C117 73.9492 116.562 76.6152 115.687 78.9903C114.812 81.3654 113.572 83.3893 111.969 85.062C110.365 86.7343 108.429 88.0189 106.161 88.9155C103.893 89.8122 101.357 90.2606 98.5538 90.2606C95.759 90.2606 93.219 89.8122 90.9338 88.9155C88.6486 88.0189 86.7003 86.7343 85.0889 85.062C83.474 83.3897 82.2224 81.3658 81.334 78.9903C80.4456 76.6148 80.001 73.9488 80.0002 70.9924C80.0002 68.0625 80.4448 65.4092 81.334 63.0326C82.2232 60.6559 83.4748 58.6446 85.0889 56.9985C86.7045 55.3504 88.6528 54.0782 90.9338 53.1819C93.2148 52.2856 95.7548 51.8371 98.5538 51.8363V51.8375ZM74.0932 60.3061C73.8679 60.6039 73.6063 60.8725 73.3144 61.1058C73.0599 61.3019 72.6829 61.395 72.197 61.395C71.733 61.395 71.2848 61.2487 70.8475 60.9717C70.4102 60.6947 69.8872 60.3761 69.2817 60.0256C68.5946 59.6385 67.8699 59.322 67.1187 59.0808C66.2802 58.8021 65.2357 58.6685 63.9959 58.6685C62.4168 58.6685 61.0314 58.9472 59.8414 59.5168C58.6635 60.0783 57.6441 60.9233 56.8752 61.9755C56.0859 63.0442 55.4898 64.3279 55.1018 65.8429C54.7139 67.358 54.5179 69.0766 54.5179 70.9895C54.5179 72.9775 54.7365 74.7482 55.1616 76.2985C55.5866 77.8488 56.195 79.1453 56.997 80.2006C57.799 81.2559 58.7709 82.0539 59.9133 82.5992C61.0558 83.1445 62.3437 83.4226 63.7778 83.4226C65.212 83.4226 66.377 83.2411 67.2654 82.8883C68.1538 82.5356 68.8938 82.1499 69.4998 81.7266C70.1058 81.3033 70.6428 80.9142 71.0922 80.5626C71.5197 80.2211 72.0523 80.0373 72.6 80.0421C73.3287 80.0421 73.8756 80.3205 74.2405 80.8771L76.8293 84.1489C75.884 85.2643 74.7916 86.2468 73.5818 87.0697C72.4535 87.8395 71.2381 88.4738 69.9608 88.9595C68.7064 89.4352 67.4035 89.7724 66.0754 89.9651C64.7596 90.1567 63.4317 90.2534 62.1019 90.2542C59.8612 90.2655 57.6414 89.8242 55.5762 88.9572C53.5457 88.1058 51.7253 86.8242 50.241 85.2014C48.7223 83.5539 47.5195 81.5283 46.6323 79.1424C45.745 76.7565 45.2956 74.0409 45.2956 70.9889C45.2956 68.252 45.6969 65.7071 46.4867 63.3692C47.2766 61.0312 48.4311 59.0062 49.9621 57.2974C51.4931 55.5887 53.3894 54.2552 55.6493 53.2866C57.9092 52.318 60.5101 51.8323 63.4514 51.8323C66.2465 51.8323 68.6966 52.2804 70.8017 53.1767C72.9068 54.073 74.7942 55.3575 76.4639 57.0303L74.0932 60.3061ZM24.4775 58.2712C21.8528 58.2712 19.7989 59.0108 18.3159 60.49C16.8329 61.9692 15.8857 64.0652 15.4744 66.778H32.3874C32.3945 65.6619 32.2348 64.551 31.9136 63.4819C31.6178 62.4914 31.1216 61.5717 30.4557 60.7797C29.7794 59.9876 28.932 59.3583 27.9772 58.9391C26.9809 58.488 25.8141 58.2701 24.4775 58.2701V58.2712ZM24.2954 51.8375C26.6537 51.8375 28.8246 52.213 30.8083 52.9639C32.792 53.7149 34.4971 54.8097 35.9237 56.2485C37.3572 57.6899 38.4753 59.4589 39.2779 61.5557C40.0805 63.6525 40.4814 66.0475 40.4806 68.7406C40.4888 69.3032 40.4603 69.8656 40.3954 70.4245C40.3374 70.8744 40.2254 71.2242 40.0677 71.4781C39.918 71.7249 39.6919 71.9165 39.4234 72.024C39.1561 72.1333 38.8157 72.1928 38.4028 72.1928H15.29C15.5579 76.0221 16.5909 78.8336 18.389 80.6273C20.1871 82.4211 22.569 83.3182 25.5346 83.3186C26.9931 83.3186 28.2567 83.1451 29.3139 82.8079C30.2677 82.5115 31.1944 82.1347 32.0841 81.6815C32.8732 81.2698 33.566 80.8941 34.1625 80.5545C34.7575 80.2162 35.3287 80.0468 35.8872 80.0468C36.2164 80.038 36.5424 80.1128 36.8347 80.2642C37.1104 80.4151 37.3483 80.6263 37.5306 80.8818L40.1558 84.1536C39.19 85.2884 38.0595 86.2729 36.8017 87.0744C35.587 87.8511 34.2863 88.4853 32.9256 88.9641C31.5904 89.4361 30.211 89.773 28.8082 89.9697C27.4595 90.1593 26.0993 90.2559 24.7373 90.2588C22.1369 90.2588 19.7181 89.8217 17.4826 88.9618C15.2837 88.1264 13.2932 86.8242 11.6493 85.1453C9.99656 83.4602 8.6964 81.3756 7.74883 78.8914C6.80126 76.4072 6.32729 73.5313 6.3269 70.2637C6.3269 67.7194 6.74018 65.3244 7.56674 63.0789C8.3933 60.8333 9.57999 58.8826 11.1268 57.2269C12.6697 55.5665 14.5533 54.2538 16.7774 53.2889C19.0016 52.324 21.5076 51.8398 24.2954 51.8363V51.8375Z" fill="#A5C643"/>
<path d="M104.313 119.378C104.245 119.559 104.13 119.719 103.98 119.841C103.842 119.946 103.632 120.001 103.349 120.001H101.182L103.444 115.177L98.5584 104.025H101.101C101.336 104.025 101.516 104.083 101.642 104.189C101.762 104.293 101.859 104.422 101.926 104.566L104.503 110.811C104.59 111.017 104.665 111.229 104.727 111.444C104.789 111.663 104.844 111.882 104.89 112.101C104.955 111.875 105.025 111.654 105.099 111.444C105.172 111.234 105.252 111.018 105.339 110.799L107.765 104.565C107.828 104.407 107.937 104.272 108.078 104.177C108.22 104.077 108.39 104.023 108.564 104.025H110.895L104.313 119.378ZM94.1285 98.6245V116.067H91.219V98.6245H94.1285ZM79.6203 113.943C80.2246 113.943 80.7386 113.818 81.1623 113.567C81.6227 113.285 82.0292 112.923 82.3627 112.499V107.1C82.0348 106.701 81.6768 106.419 81.2887 106.254C80.8907 106.089 80.4635 106.006 80.0326 106.009C79.6219 106.003 79.2148 106.087 78.8397 106.254C78.4794 106.421 78.1678 106.677 77.9345 106.998C77.6857 107.33 77.4938 107.754 77.3604 108.265C77.227 108.775 77.1597 109.385 77.1597 110.08C77.1597 110.786 77.2177 111.38 77.3337 111.869C77.4497 112.358 77.6092 112.756 77.8214 113.065C78.012 113.357 78.2806 113.589 78.5968 113.736C78.919 113.876 79.2675 113.947 79.6191 113.943H79.6203ZM83.4941 116.067C83.1177 116.067 82.8689 115.891 82.7518 115.539L82.5163 114.376C82.2738 114.651 82.0099 114.906 81.7271 115.14C81.4538 115.367 81.1565 115.564 80.8404 115.727C80.5152 115.893 80.1714 116.021 79.8163 116.106C79.4283 116.2 79.0302 116.246 78.631 116.244C78.0031 116.25 77.3824 116.11 76.8193 115.832C76.2606 115.549 75.7755 115.141 75.4026 114.638C75.0079 114.119 74.7015 113.476 74.4835 112.71C74.2654 111.943 74.157 111.066 74.1581 110.078C74.1506 109.235 74.274 108.397 74.5241 107.592C74.7443 106.866 75.0999 106.189 75.5719 105.595C76.0138 105.041 76.5722 104.59 77.2079 104.274C77.8458 103.956 78.5567 103.799 79.3489 103.799C80.0235 103.799 80.6005 103.906 81.0799 104.12C81.5544 104.333 81.9882 104.626 82.3621 104.987V98.6262H85.2709V116.069L83.4941 116.067ZM58.993 116.067V104.024H60.7704C61.1461 104.024 61.3949 104.197 61.5121 104.552L61.711 105.503C61.9505 105.257 62.2089 105.029 62.484 104.822C62.754 104.62 63.0418 104.444 63.344 104.294C63.6529 104.144 63.978 104.03 64.313 103.954C64.6841 103.873 65.063 103.834 65.4427 103.838C66.1026 103.838 66.6866 103.946 67.1969 104.169C67.691 104.379 68.1295 104.701 68.4779 105.109C68.8302 105.534 69.0937 106.026 69.2533 106.554C69.4346 107.154 69.5234 107.778 69.5165 108.405V116.07H66.6077V108.401C66.6077 107.666 66.4396 107.095 66.0974 106.691C65.7553 106.288 65.2426 106.09 64.5607 106.09C64.0688 106.087 63.5836 106.204 63.1468 106.429C62.6858 106.672 62.2652 106.984 61.9 107.355V116.065L58.993 116.067ZM48.8399 105.915C47.9929 105.915 47.33 106.153 46.8514 106.631C46.3728 107.109 46.0666 107.786 45.9328 108.663H51.395C51.3972 108.302 51.3458 107.943 51.2425 107.597C51.146 107.278 50.9857 106.981 50.771 106.725C50.5524 106.469 50.2787 106.265 49.9701 106.13C49.6129 105.979 49.2277 105.906 48.8399 105.915ZM48.7819 103.839C49.4991 103.83 50.2117 103.953 50.8847 104.2C51.5058 104.431 52.0696 104.793 52.5374 105.261C53.0151 105.751 53.3842 106.335 53.6207 106.976C53.8793 107.653 54.0086 108.426 54.0086 109.296C54.0115 109.477 54.0022 109.659 53.9808 109.839C53.9698 109.959 53.9339 110.075 53.8753 110.18C53.8263 110.259 53.7533 110.32 53.6671 110.354C53.562 110.394 53.4502 110.414 53.3377 110.412H45.8743C45.9605 111.648 46.2941 112.555 46.8752 113.134C47.4563 113.713 48.2252 114.002 49.1821 114.002C49.5941 114.009 50.0048 113.954 50.3999 113.837C50.7076 113.741 51.0067 113.619 51.2941 113.473C51.5492 113.339 51.7731 113.218 51.9656 113.109C52.1335 113.006 52.3256 112.95 52.5223 112.945C52.6286 112.943 52.7339 112.967 52.8285 113.015C52.9167 113.064 52.9931 113.132 53.0524 113.213L53.9002 114.271C53.5882 114.637 53.2231 114.954 52.8169 115.213C52.4245 115.464 52.0044 115.669 51.5649 115.824C51.1335 115.976 50.6881 116.085 50.2352 116.15C49.7996 116.21 49.3603 116.241 48.9205 116.243C48.1205 116.249 47.3263 116.107 46.5783 115.824C45.8682 115.554 45.2256 115.133 44.6947 114.591C44.1612 114.048 43.7412 113.376 43.4346 112.573C43.128 111.77 42.9751 110.841 42.9759 109.787C42.9702 108.996 43.1059 108.211 43.3766 107.467C43.6293 106.767 44.0199 106.124 44.5254 105.576C45.0391 105.031 45.6605 104.597 46.3504 104.304C47.0706 103.992 47.8784 103.838 48.7813 103.838L48.7819 103.839ZM38.3256 100.515C38.3267 100.759 38.2742 100.999 38.1719 101.22C37.974 101.658 37.6162 102.003 37.1716 102.186C36.9411 102.285 36.6926 102.336 36.4415 102.335C36.197 102.336 35.9551 102.285 35.7317 102.186C35.2926 102.003 34.9423 101.656 34.7545 101.22C34.6551 100.999 34.6042 100.758 34.6055 100.515C34.6043 100.265 34.6551 100.017 34.7545 99.7874C34.8461 99.5688 34.979 99.3697 35.146 99.201C35.3147 99.0342 35.5134 98.9004 35.7317 98.8067C35.9552 98.7084 36.1972 98.6587 36.4415 98.6609C36.6924 98.6585 36.941 98.7081 37.1716 98.8067C37.393 98.9003 37.5952 99.034 37.7677 99.201C37.9391 99.3691 38.0768 99.5681 38.1737 99.7874C38.275 100.016 38.3266 100.264 38.325 100.514L38.3256 100.515ZM37.8895 104.025V116.068H34.9813V104.024L37.8895 104.025ZM22.5579 116.067V104.024H24.2646C24.5632 104.024 24.7708 104.082 24.8885 104.187C25.0063 104.293 25.0857 104.485 25.124 104.752L25.2979 106.207C25.7298 105.464 26.2362 104.877 26.8173 104.447C27.3788 104.022 28.066 103.794 28.771 103.801C29.3672 103.801 29.8614 103.938 30.2539 104.212L29.8775 106.384C29.8669 106.499 29.8123 106.605 29.725 106.681C29.6312 106.744 29.5196 106.776 29.4066 106.77C29.2428 106.763 29.0805 106.736 28.9235 106.688C28.6575 106.627 28.3847 106.599 28.1117 106.607C27.5074 106.607 26.989 106.77 26.5581 107.103C26.1272 107.435 25.7613 107.926 25.4638 108.567V116.067H22.5579ZM12.2071 116.067V106.207L11.1586 106.044C10.9588 106.017 10.7702 105.935 10.6135 105.809C10.5439 105.747 10.489 105.671 10.453 105.586C10.4169 105.5 10.4007 105.408 10.4053 105.316V104.129H12.2071V103.237C12.1979 102.605 12.3042 101.977 12.5208 101.383C12.7114 100.856 13.0179 100.377 13.4177 99.9835C13.8176 99.5896 14.3007 99.2899 14.8318 99.1062C15.4366 98.894 16.0742 98.7903 16.7153 98.7997C17.2416 98.7959 17.7654 98.8717 18.2689 99.0247L18.2109 100.478C18.1952 100.706 18.0885 100.847 17.8925 100.901C17.6698 100.96 17.4402 100.987 17.21 100.983C16.8991 100.979 16.589 101.016 16.2879 101.094C16.0281 101.161 15.7902 101.294 15.5972 101.481C15.3975 101.685 15.2508 101.935 15.1699 102.209C15.0624 102.573 15.0121 102.952 15.0208 103.332V104.129H18.1639V106.195H15.1148V116.067H12.2071Z" fill="#A5C643"/>
<path fill-rule="evenodd" clip-rule="evenodd" d="M89.0264 14.5275C79.7148 25.814 89.9658 33.997 75.714 44.4542C72.3274 36.2799 75.42 28.6001 77.8771 23.3818C69.2167 32.3102 72.5268 44.6323 76.4586 57.0406L71.5195 58.3828C65.7906 39.6414 55.3372 19.2421 30.0845 14.8519C41.6009 18.9391 52.6203 29.3755 58.326 40.0999C19.0529 44.5716 24.5458 8.40722 -0.00170898 1.50857C33.9548 -4.66956 57.8076 8.06547 69.9352 41.6202C66.1287 24.2278 73.0087 19.8712 89.0264 14.5298" fill="#A5C643"/>
</g>
<defs>
<clipPath id="clip0_111_835">
<rect width="117" height="120" fill="white"/>
</clipPath>
</defs>
</svg>
