<svg width="172" height="50" viewBox="0 0 172 50" fill="none" xmlns="http://www.w3.org/2000/svg">
<g clip-path="url(#clip0_111_755)">
<path d="M33.6046 43.5615L31.4836 43.5615L27.3079 33.509L6.29672 33.509L2.121 43.5615L1.72843e-06 43.5615L15.7087 6.17651L17.896 6.17651L33.6046 43.5615ZM26.6451 31.8664L16.7692 8.27901L6.95954 31.8664L26.6451 31.8664Z" fill="white"/>
<path d="M69.4628 43.5611L67.0767 43.5611L52.8262 25.7556L38.5757 43.5611L36.1896 43.5611L51.7657 24.3758L37.0512 6.17609L39.5036 6.17609L52.8262 22.9304L66.1487 6.17609L68.6011 6.17608L53.8204 24.3758L69.4628 43.5611Z" fill="white"/>
<path d="M77.6154 43.5611L75.8258 43.5611L75.8258 6.17609L77.6154 6.17609L77.6154 43.5611Z" fill="white"/>
<path d="M172 43.5611L169.614 43.5611L155.364 25.7556L141.113 43.5611L138.727 43.5611L154.303 24.3758L139.589 6.17609L142.041 6.17609L155.364 22.9304L168.686 6.17609L171.139 6.17608L156.424 24.3758L172 43.5611Z" fill="white"/>
<path d="M110.69 15.7687C110.69 15.5059 110.756 15.1774 110.756 14.9146C110.822 14.389 110.822 13.8633 110.822 13.3377C110.822 13.0092 110.888 12.6807 110.888 12.3522C110.955 11.7608 110.955 11.1038 111.021 10.5125C111.021 10.1183 110.888 9.72405 110.557 9.46124C110.292 9.26413 110.093 9.06702 109.828 8.80421C109.563 8.54139 109.43 8.27858 109.43 7.95007C109.43 7.55585 109.364 7.09593 109.364 6.70171C109.364 6.04468 109.298 5.38765 109.298 4.73062C109.298 3.94218 109.231 3.21945 109.231 2.43101C109.231 1.64258 109.165 0.788436 109.165 -8.58025e-08C108.9 -7.3545e-08 108.569 -5.82231e-08 108.304 -4.59656e-08C108.237 -4.29012e-08 108.171 0.065703 108.105 0.065703C107.906 0.065703 107.707 0.065703 107.508 0.065703C107.376 0.065703 107.309 0.131406 107.309 0.262812C107.309 0.328515 107.309 0.394218 107.309 0.525624C107.376 1.18265 107.442 1.83968 107.442 2.49672C107.442 2.82523 107.508 3.15375 107.508 3.48226C107.574 4.13929 107.641 4.86202 107.707 5.51905C107.773 6.17608 107.84 6.89882 107.906 7.55585C107.906 7.75296 107.972 7.88436 107.972 8.08147C108.038 8.54139 108.37 8.80421 108.768 9.13272C108.966 9.32983 109.231 9.46124 109.43 9.65835C109.762 9.92116 109.961 10.3154 109.961 10.7096C109.961 11.8922 110.027 13.1406 110.027 14.3233C110.027 14.8489 110.027 15.3088 110.027 15.8344C110.159 15.8344 110.292 15.8344 110.425 15.8344C110.557 15.7687 110.623 15.7687 110.69 15.7687Z" fill="white"/>
<path d="M105.189 13.1405C104.99 12.6806 104.791 12.1549 104.592 11.695C104.46 11.3665 104.195 11.1037 103.797 10.9723C103.532 10.9066 103.333 10.8409 103.068 10.8409C102.538 10.7752 102.206 10.4467 101.941 10.0524C101.61 9.46112 101.278 8.86979 100.947 8.27846C100.218 6.9644 99.4886 5.58464 98.7595 4.27058C98.5606 3.94206 98.3618 3.61355 98.2292 3.28503C98.2292 3.21933 98.1629 3.21933 98.0966 3.15363C97.9641 3.21933 97.8978 3.21933 97.8315 3.28503C97.5001 3.48214 97.1687 3.67925 96.8373 3.87636C96.5722 4.07347 96.5059 4.07347 96.7047 4.40198C97.3013 5.32183 97.8315 6.30737 98.4281 7.22721C99.1572 8.40987 99.8862 9.52682 100.549 10.7095C100.814 11.1037 101.212 11.3665 101.676 11.4322C101.941 11.4979 102.272 11.5636 102.538 11.5636C103.068 11.6293 103.399 11.8921 103.664 12.4178C103.996 13.0748 104.327 13.6661 104.659 14.3231C105.123 15.1773 105.586 16.0971 106.05 16.9513C106.249 16.8199 106.448 16.7542 106.647 16.6884C106.117 15.4401 105.653 14.2574 105.189 13.1405Z" fill="white"/>
<path d="M118.511 34.6912C118.909 35.2168 119.306 35.6767 119.77 36.2023C119.969 36.4651 120.3 36.5966 120.632 36.5966C120.963 36.5966 121.295 36.5966 121.626 36.5966C122.024 36.5966 122.355 36.728 122.62 36.9908C122.952 37.3193 123.283 37.6478 123.548 37.9106C124.078 38.4362 124.609 38.9619 125.139 39.4218C126.133 40.4073 127.061 41.3272 128.055 42.3127C128.122 42.3784 128.188 42.4441 128.188 42.5098C128.254 42.4441 128.32 42.3784 128.387 42.3784C128.718 41.9842 129.05 41.6557 129.381 41.2615C129.447 41.1958 129.447 41.0644 129.381 40.9987C129.315 40.933 129.315 40.933 129.248 40.8672C128.122 39.8817 127.061 38.8962 125.934 37.8449C125.338 37.2536 124.675 36.728 124.078 36.1366C123.548 35.611 122.952 35.4139 122.223 35.5453C121.958 35.611 121.692 35.611 121.427 35.611C120.963 35.6767 120.632 35.4796 120.3 35.1511C120.102 34.8883 119.837 34.6912 119.638 34.4284C119.174 33.9684 118.776 33.5085 118.312 33.0486C117.848 32.523 117.318 31.9973 116.854 31.5374C116.721 31.6688 116.522 31.8659 116.39 31.9973C117.119 32.9172 117.848 33.7713 118.511 34.6912Z" fill="white"/>
<path d="M119.439 15.046C119.704 14.7832 119.903 14.5204 120.168 14.2575C120.433 13.929 120.499 13.6005 120.433 13.2063C120.367 13.0092 120.367 12.8121 120.301 12.5493C120.168 12.0893 120.234 11.6294 120.566 11.2352C120.897 10.841 121.229 10.3811 121.494 9.98685C122.09 9.19841 122.687 8.40997 123.283 7.62154C123.88 6.7674 124.543 5.97896 125.139 5.12482C125.205 4.99342 125.272 4.92771 125.073 4.79631C124.675 4.53349 124.278 4.27068 123.88 3.94217C123.88 3.94217 123.814 3.87646 123.747 3.87646C123.681 3.87646 123.681 3.94217 123.615 3.94217C123.548 4.00787 123.548 4.07357 123.482 4.13928C122.753 5.19053 122.024 6.30748 121.229 7.35872C120.632 8.27857 119.969 9.19841 119.373 10.1183C119.24 10.3154 119.174 10.5125 119.041 10.7096C118.909 11.0381 119.041 11.4323 119.108 11.7608C119.174 12.0893 119.24 12.3522 119.306 12.6807C119.373 13.0092 119.306 13.3377 119.041 13.6662C118.776 13.9947 118.511 14.3232 118.246 14.6518C117.45 15.703 116.589 16.6886 115.793 17.7398C115.992 17.8712 116.125 18.0026 116.324 18.134C117.517 17.0171 118.511 16.0315 119.439 15.046Z" fill="white"/>
<path d="M100.814 29.5006C99.6212 30.0263 98.4944 30.4862 97.3014 31.0118C96.7711 31.2089 96.4397 31.6031 96.3734 32.1945C96.3734 32.2602 96.3734 32.3916 96.3072 32.4573C96.1746 33.0486 95.9757 33.5742 95.3792 33.837C95.1141 33.9684 94.849 34.0998 94.5838 34.297C92.7942 35.3482 91.0709 36.3337 89.2813 37.385C89.0825 37.5164 88.8836 37.5821 88.6848 37.7135C88.6185 37.7792 88.5522 37.8449 88.6185 37.9763C88.8836 38.3705 89.1488 38.7648 89.4139 39.2247C89.4802 39.3561 89.6127 39.3561 89.7453 39.2904C89.8116 39.2904 89.8116 39.2247 89.8779 39.2247C91.3361 38.3048 92.728 37.385 94.1862 36.4652C94.7827 36.0709 95.4455 35.6767 96.042 35.2168C96.506 34.954 96.7048 34.5598 96.8374 34.0341C96.9037 33.6399 96.97 33.2457 97.0362 32.8515C97.1025 32.5887 97.2351 32.3259 97.5002 32.1945C97.6991 32.063 97.8979 31.9973 98.0967 31.8659C99.4887 31.0775 100.881 30.2891 102.339 29.5663C102.206 29.3692 102.14 29.1721 102.074 29.0407C101.676 29.1064 101.212 29.3035 100.814 29.5006Z" fill="white"/>
<path d="M101.079 32.2601C100.35 32.7857 99.6873 33.3113 98.9582 33.8369C98.5605 34.1655 98.3616 34.5597 98.3616 35.0196C98.3616 35.2167 98.3616 35.3481 98.3616 35.5452C98.3616 36.0051 98.2953 36.4651 97.9639 36.7936C97.8314 36.925 97.6988 37.0564 97.5662 37.1878C96.6383 38.0419 95.7104 38.8961 94.7824 39.7502C93.9208 40.5387 93.1254 41.3271 92.2637 42.1155C92.1312 42.2469 92.1312 42.3126 92.2637 42.3783C92.6614 42.7069 92.9928 43.1011 93.3905 43.4296C93.3905 43.4296 93.4568 43.4296 93.4568 43.4953C93.4568 43.4953 93.5231 43.4953 93.5231 43.4296C93.5894 43.3639 93.6556 43.2982 93.7219 43.2325C94.7161 42.1812 95.7766 41.13 96.7709 40.1444C97.4337 39.4217 98.0965 38.7647 98.7593 38.0419C99.0244 37.7791 99.2233 37.5163 99.2233 37.1221C99.2233 36.8593 99.2233 36.5308 99.2233 36.268C99.2233 36.0051 99.157 35.7423 99.157 35.4795C99.157 35.2167 99.2233 34.9539 99.4221 34.7568C99.6873 34.494 100.019 34.2312 100.284 33.9683C101.344 32.9828 102.405 32.063 103.465 31.0774C103.333 30.946 103.2 30.7489 103.068 30.6175C102.471 31.2088 101.808 31.7344 101.079 32.2601Z" fill="white"/>
<path d="M121.03 17.6083C121.494 17.2798 121.958 16.9513 122.488 16.6228C122.753 16.4257 122.886 16.1629 122.886 15.7686C122.886 15.5058 122.952 15.1773 122.952 14.9145C122.952 14.4546 123.151 14.1261 123.482 13.8632C124.278 13.2062 125.007 12.5492 125.802 11.8922C126.399 11.3665 126.995 10.8409 127.658 10.381C128.254 9.92106 128.851 9.39544 129.381 8.93552C129.58 8.80411 129.58 8.73841 129.381 8.5413C129.182 8.27849 128.917 8.01567 128.652 7.75286C128.254 7.35864 128.254 7.35864 127.857 7.68716C126.995 8.4756 126.133 9.26403 125.272 10.0525C124.874 10.381 124.476 10.7095 124.145 11.1037C123.615 11.6293 123.085 12.0893 122.554 12.6149C122.223 12.9434 122.09 13.2719 122.09 13.7318C122.09 14.0604 122.09 14.4546 122.09 14.7831C122.09 15.243 121.892 15.6372 121.494 15.9657C121.428 16.0314 121.295 16.0971 121.229 16.1629C120.036 17.1484 118.776 18.0682 117.583 19.0538C117.716 19.2509 117.848 19.3823 117.981 19.5794C118.975 18.9224 120.036 18.2653 121.03 17.6083Z" fill="white"/>
<path d="M116.456 36.9908C116.655 37.3193 116.854 37.7135 116.986 38.042C117.185 38.3705 117.45 38.5019 117.782 38.5676C117.981 38.6333 118.18 38.6333 118.378 38.6333C118.909 38.699 119.373 38.9619 119.638 39.4218C120.367 40.6701 121.162 41.8528 121.958 43.0354C122.554 43.9553 123.084 44.8751 123.681 45.795C123.813 46.0578 123.88 46.0578 124.079 45.9264C124.476 45.6636 124.808 45.4008 125.205 45.1379C125.272 45.0722 125.338 45.0065 125.338 44.9408C125.272 44.8751 125.272 44.8094 125.205 44.7437C125.007 44.4809 124.874 44.2181 124.675 43.9553C123.946 42.9697 123.283 41.9185 122.554 40.9329C122.024 40.1445 121.494 39.4218 120.963 38.6333C120.632 38.1734 120.234 37.9763 119.638 37.9106C119.24 37.8449 118.776 37.7792 118.378 37.6478C118.113 37.5821 117.914 37.385 117.782 37.1222C117.649 36.9251 117.517 36.7279 117.384 36.4651C116.655 35.2168 115.86 33.9684 115.131 32.6544C114.932 32.7858 114.733 32.8515 114.6 32.9829C115.263 34.4283 115.86 35.7424 116.456 36.9908Z" fill="white"/>
<path d="M104.592 32.1943C103.863 33.0485 103.2 33.8369 102.471 34.691C102.073 35.2167 101.609 35.7423 101.212 36.2679C100.947 36.5964 100.814 36.9907 100.947 37.3849C101.013 37.582 101.013 37.7134 101.079 37.9105C101.145 38.1076 101.145 38.3047 101.212 38.5018C101.212 38.8303 101.079 39.1589 100.88 39.4217C99.4883 41.5242 98.0964 43.6267 96.7045 45.7291C96.5057 45.992 96.5057 45.992 96.8371 46.1891C97.2348 46.3862 97.6325 46.5833 97.9639 46.8461C98.0965 46.9118 98.1627 46.9118 98.2953 46.7804C98.3616 46.7147 98.3616 46.649 98.4279 46.5833C98.8918 45.7949 99.3558 45.0721 99.8198 44.2837C100.615 42.9696 101.344 41.6556 102.14 40.4072C102.405 39.9473 102.471 39.4874 102.272 39.0274C102.14 38.6989 102.073 38.3047 101.941 37.9762C101.874 37.582 101.874 37.2535 102.14 36.9249C102.338 36.6621 102.537 36.3336 102.736 36.0708C103.531 34.9539 104.327 33.7712 105.122 32.6543C104.99 32.3914 104.857 32.26 104.592 32.1943C104.658 32.1943 104.658 32.1943 104.592 32.1943Z" fill="white"/>
<path d="M102.802 18.7253C101.941 17.9369 101.079 17.2141 100.217 16.4257C99.8859 16.1629 99.6208 15.9001 99.2894 15.6373C98.8917 15.3087 98.494 15.243 98.0301 15.3745C97.8312 15.4402 97.5661 15.5059 97.3672 15.5059C96.9696 15.5716 96.6382 15.5716 96.2405 15.3087C95.2462 14.586 94.1858 13.8633 93.1915 13.2063C92.0648 12.4178 90.938 11.6294 89.8775 10.8409C89.8112 10.7752 89.7449 10.7752 89.6786 10.7095C89.6786 10.7752 89.6123 10.8409 89.6123 10.8409C89.3472 11.2352 89.0821 11.6951 88.817 12.0893C88.7507 12.2207 88.7507 12.2864 88.8833 12.3521C89.1484 12.5492 89.4135 12.7463 89.7449 12.8777C90.4077 13.272 91.0705 13.7319 91.7996 14.1261C92.9264 14.8488 94.0532 15.5716 95.18 16.2943C95.6439 16.6228 96.1742 16.6885 96.7044 16.4914C97.0358 16.36 97.4335 16.2943 97.7649 16.2286C98.1626 16.1629 98.494 16.2286 98.7592 16.4914C100.151 17.5427 101.609 18.5939 103.001 19.6451C103.134 19.448 103.266 19.3166 103.399 19.1195C103.134 18.9881 102.935 18.8567 102.802 18.7253Z" fill="white"/>
<path d="M102.007 13.7319C101.874 13.5348 101.675 13.3377 101.543 13.1406C101.344 12.8777 101.013 12.812 100.748 12.812C100.482 12.812 100.284 12.812 100.018 12.812C99.4882 12.812 99.0905 12.6149 98.6928 12.2207C97.8975 11.3666 97.1021 10.4467 96.3067 9.59259C95.7102 8.93556 95.1799 8.34423 94.5834 7.6872C94.252 7.29298 93.9206 6.89876 93.5229 6.57025C93.4566 6.50455 93.4566 6.50455 93.3903 6.43884C93.324 6.43884 93.324 6.43884 93.324 6.50455C92.9264 6.89876 92.5287 7.22728 92.1973 7.6215C92.1973 7.6872 92.1973 7.7529 92.1973 7.81861C92.1973 7.88431 92.3298 7.95001 92.3298 8.01572C93.4566 9.19837 94.5834 10.3153 95.7765 11.498C96.373 12.0893 96.9695 12.6806 97.4998 13.272C97.8312 13.6005 98.2289 13.7319 98.6928 13.7319C98.958 13.7319 99.1568 13.6662 99.4219 13.6662C99.9522 13.6662 100.482 13.7319 100.88 14.1918C101.278 14.6517 101.675 15.1116 102.073 15.5716C102.802 16.4257 103.531 17.2798 104.327 18.134C104.459 18.0026 104.658 17.8712 104.791 17.7398C103.863 16.36 102.935 15.0459 102.007 13.7319Z" fill="white"/>
<path d="M104.724 36.5308C104.459 36.9907 104.26 37.5163 103.995 38.042C103.796 38.4362 103.863 38.8304 104.061 39.2246C104.194 39.4217 104.26 39.6845 104.393 39.8816C104.592 40.2759 104.592 40.6701 104.459 41.0643C103.995 42.247 103.597 43.4296 103.133 44.6123C102.669 45.8606 102.206 47.0433 101.742 48.2916C101.675 48.4887 101.675 48.5545 101.874 48.6202C102.272 48.7516 102.669 48.883 103.067 49.0144C103.465 49.1458 103.399 49.2115 103.597 48.7516C103.929 47.766 104.194 46.8462 104.525 45.8606C104.923 44.5466 105.387 43.2325 105.785 41.9184C105.984 41.3271 105.917 40.8015 105.586 40.3416C105.387 40.0788 105.254 39.8159 105.122 39.4874C104.989 39.1589 104.923 38.8961 105.056 38.5019C105.188 38.1077 105.321 37.7134 105.52 37.3849C106.05 36.1366 106.514 34.8225 107.044 33.5742C106.845 33.5084 106.646 33.377 106.448 33.3113C105.851 34.3626 105.321 35.4795 104.724 36.5308Z" fill="white"/>
<path d="M108.569 15.703C108.37 14.5204 108.171 13.272 107.972 12.0894C107.906 11.6295 107.84 11.1695 107.707 10.7096C107.641 10.3154 107.442 9.98688 107.044 9.78977C106.846 9.65836 106.647 9.59266 106.448 9.52696C105.984 9.32985 105.653 8.93563 105.52 8.41001C105.255 7.42446 104.99 6.50462 104.725 5.51907C104.327 4.07361 103.863 2.56244 103.465 1.11697C103.399 0.85416 103.399 0.85416 103.134 0.919863C102.67 1.05127 102.272 1.18268 101.808 1.37978C101.676 1.44549 101.609 1.51119 101.676 1.6426C101.676 1.7083 101.742 1.774 101.742 1.83971C102.338 3.67939 102.935 5.45337 103.532 7.29306C103.664 7.75298 103.863 8.2129 103.996 8.67282C104.194 9.19844 104.526 9.59266 105.056 9.78977C105.255 9.85547 105.454 9.92118 105.653 10.0526C106.117 10.2497 106.58 10.5125 106.713 11.1038C106.779 11.5638 106.912 11.958 107.044 12.4179C107.376 13.6662 107.641 14.8489 107.972 16.0973C108.171 16.0316 108.37 15.9659 108.569 15.9659C108.569 15.9001 108.569 15.7687 108.569 15.703Z" fill="white"/>
<path d="M114.932 16.6229C115.661 15.3745 116.456 14.0604 117.185 12.8121C117.318 12.615 117.384 12.3522 117.517 12.0894C117.583 11.8922 117.583 11.6294 117.517 11.4323C117.384 11.1695 117.318 10.841 117.185 10.5782C116.92 10.1183 116.986 9.65834 117.185 9.19842L117.185 9.13271C118.047 7.22733 118.909 5.25624 119.77 3.35085C119.903 2.95663 120.102 2.62811 120.234 2.2339C120.301 2.03679 120.301 1.97108 120.102 1.90538C119.77 1.77398 119.439 1.64257 119.041 1.51116C118.643 1.31405 118.643 1.31405 118.445 1.77398C117.583 4.00788 116.721 6.17608 115.86 8.40998C115.661 8.8699 115.661 9.39553 115.926 9.85545C116.125 10.184 116.257 10.5125 116.39 10.841C116.589 11.2352 116.522 11.6294 116.324 12.0236C115.793 13.0749 115.329 14.0604 114.865 15.1117C114.667 15.5716 114.401 16.0972 114.203 16.5572C114.401 16.6229 114.6 16.7543 114.799 16.82C114.865 16.7543 114.865 16.6886 114.932 16.6229Z" fill="white"/>
<path d="M100.151 19.8424C99.2233 19.3825 98.3617 18.8569 97.4337 18.3969C96.9698 18.1998 96.5721 18.1998 96.1081 18.3969C95.9093 18.5283 95.6441 18.5941 95.4453 18.7255C95.1139 18.8569 94.8488 18.9226 94.5174 18.7912C94.1197 18.6598 93.7883 18.5283 93.3906 18.3969C92.1312 17.937 90.9382 17.4114 89.6788 16.8858C88.8172 16.5573 87.9555 16.2287 87.1601 15.8345C86.895 15.7688 86.895 15.7688 86.7624 15.9659C86.6299 16.4258 86.431 16.8201 86.2985 17.28C86.2322 17.4114 86.2985 17.4771 86.431 17.5428C86.895 17.6742 87.2927 17.8713 87.7567 18.0027C89.6788 18.6598 91.5347 19.3168 93.4569 19.9738C93.9871 20.1709 94.5174 20.1052 94.9813 19.8424C95.2465 19.711 95.5116 19.5796 95.7767 19.4482C96.1744 19.2511 96.6384 19.1854 97.1023 19.4482C97.4337 19.5796 97.7651 19.711 98.0303 19.8424C99.2896 20.368 100.549 20.9594 101.808 21.485C101.875 21.2879 102.007 21.0908 102.073 20.8937C101.477 20.4994 100.814 20.1709 100.151 19.8424Z" fill="white"/>
<path d="M113.341 37.0564C113.474 37.7135 113.672 38.3705 113.805 39.0275C113.938 39.4875 114.203 39.816 114.733 40.0131C114.998 40.0788 115.197 40.2102 115.462 40.3416C115.661 40.473 115.86 40.6044 115.926 40.8015C116.059 41.13 116.191 41.4585 116.324 41.7871C116.92 43.4953 117.517 45.2693 118.18 46.9776C118.312 47.4375 118.511 47.8974 118.644 48.4231C118.71 48.5545 118.71 48.6202 118.842 48.5545C119.306 48.3574 119.837 48.1603 120.301 47.9631C120.367 47.9631 120.367 47.8974 120.433 47.8974C120.367 47.766 120.367 47.6346 120.301 47.5689C119.837 46.3863 119.373 45.2693 118.909 44.0867C118.445 42.9697 117.981 41.7871 117.517 40.6701C117.45 40.473 117.318 40.3416 117.185 40.1445C116.986 39.8817 116.655 39.7503 116.324 39.6846C116.059 39.5532 115.793 39.4875 115.462 39.3561C115.131 39.2246 114.866 38.9618 114.733 38.6333C114.6 38.3048 114.534 37.9763 114.402 37.5821C114.004 36.268 113.54 34.954 113.142 33.6399C112.943 33.7056 112.744 33.7713 112.546 33.7713C112.877 34.954 113.076 36.0052 113.341 37.0564Z" fill="white"/>
<path d="M98.8252 27.4638C97.8973 27.6609 97.0356 27.858 96.1077 27.9894C95.6437 28.0551 95.3123 28.3179 95.1135 28.7779C94.9809 29.0407 94.8483 29.3035 94.7158 29.5663C94.5832 29.8948 94.2518 30.0919 93.9204 30.2233C93.7878 30.289 93.6553 30.289 93.5227 30.3547C91.932 30.8804 90.2749 31.3403 88.6842 31.8659C87.9551 32.063 87.226 32.3258 86.4969 32.5229C86.2318 32.5886 86.2318 32.6543 86.2981 32.8515C86.4306 33.3114 86.6295 33.7713 86.762 34.1655C86.8283 34.2969 86.8946 34.2969 87.0272 34.2969C87.2923 34.2312 87.5574 34.0998 87.8225 34.0341C89.9435 33.3114 91.9982 32.5229 94.1192 31.8002C94.6495 31.6031 94.9809 31.2746 95.1798 30.749C95.3123 30.4204 95.5112 30.0262 95.6437 29.6977C95.7763 29.3692 96.0414 29.1721 96.3728 29.1064C96.5054 29.0407 96.7042 29.0407 96.8368 28.975C98.3613 28.515 99.8857 28.1208 101.476 27.6609C101.476 27.6609 101.476 27.6609 101.543 27.6609C101.476 27.4638 101.41 27.2667 101.41 27.0696C100.549 27.1353 99.6869 27.2667 98.8252 27.4638Z" fill="white"/>
<path d="M110.491 38.3048C110.491 38.6333 110.491 38.9618 110.491 39.2903C110.491 39.8816 110.69 40.4073 111.286 40.6701C111.352 40.6701 111.419 40.7358 111.419 40.8015C111.883 41.13 112.28 41.5242 112.28 42.1812C112.28 42.444 112.347 42.7069 112.347 42.9697C112.413 43.6267 112.479 44.218 112.545 44.8751C112.612 45.4664 112.678 46.1234 112.744 46.7147C112.811 47.3718 112.877 48.0288 112.943 48.6858C113.009 49.0143 113.009 49.4086 113.009 49.7371C113.009 49.9342 113.076 49.9342 113.275 49.9342C113.738 49.8685 114.136 49.8028 114.6 49.7371C114.865 49.6714 114.865 49.6714 114.865 49.4086C114.799 48.9486 114.733 48.5544 114.666 48.0945C114.534 47.1747 114.401 46.2548 114.202 45.2693C114.07 44.1523 113.871 43.1011 113.739 41.9841C113.672 41.4585 113.407 41.0643 112.943 40.8015C112.612 40.6044 112.347 40.4072 112.081 40.2101C111.75 39.9473 111.551 39.6188 111.551 39.2246C111.485 38.6333 111.419 37.9762 111.419 37.3849C111.352 36.3337 111.286 35.2824 111.154 34.1655C110.955 34.1655 110.69 34.1655 110.491 34.1655C110.491 35.5452 110.491 36.925 110.491 38.3048Z" fill="white"/>
<path d="M113.275 14.586C113.606 13.5347 113.938 12.4178 114.269 11.3665C114.468 10.7752 114.402 10.2496 113.938 9.72396C113.739 9.52685 113.606 9.32974 113.474 9.06693C113.341 8.80412 113.275 8.5413 113.341 8.21279C113.54 7.29295 113.673 6.3731 113.872 5.45326C114.07 4.27061 114.335 3.08795 114.534 1.9053C114.601 1.44537 114.733 0.985453 114.799 0.591234C114.799 0.394125 114.799 0.262719 114.601 0.262719C114.203 0.197016 113.805 0.131313 113.474 0.131313C113.341 0.131313 113.142 0.0656101 113.076 0.131313C113.01 0.197016 112.944 0.394125 112.944 0.525531C112.877 1.11686 112.745 1.77389 112.678 2.36522C112.546 3.21936 112.413 4.00779 112.281 4.86193C112.148 5.71607 112.016 6.57021 111.883 7.42435C111.817 8.08138 111.883 8.60701 112.347 9.13263C112.546 9.39544 112.745 9.59255 112.944 9.85536C113.142 10.1839 113.275 10.5124 113.142 10.8409C112.745 12.5492 112.413 14.1918 112.082 15.9C112.281 15.9657 112.48 15.9657 112.678 16.0315C112.944 15.5715 113.142 15.0459 113.275 14.586Z" fill="white"/>
<path d="M108.303 34.494C107.972 35.9395 107.574 37.3192 107.243 38.7647C107.177 39.0932 107.044 39.4217 107.177 39.7502C107.243 40.0131 107.442 40.2102 107.641 40.473C107.839 40.6701 108.038 40.9329 108.171 41.1957C108.303 41.3928 108.37 41.5899 108.303 41.787C108.237 42.6412 108.105 43.561 107.972 44.4152C107.906 45.0722 107.773 45.7949 107.707 46.4519C107.641 46.9776 107.574 47.5032 107.508 48.0288C107.442 48.5544 107.375 49.0144 107.309 49.54C107.243 49.8685 107.309 49.8685 107.641 49.9342C108.038 49.9999 108.436 49.9999 108.966 49.9999C109.165 49.9999 109.165 49.9999 109.165 49.6714C109.231 49.0144 109.298 48.423 109.298 47.766C109.364 46.9776 109.43 46.1891 109.496 45.4664C109.496 45.0722 109.563 44.7437 109.563 44.3495C109.629 43.561 109.629 42.8383 109.695 42.0498C109.695 41.787 109.629 41.5899 109.496 41.3928C109.364 41.1957 109.231 41.0643 109.033 40.8672C108.834 40.6044 108.635 40.4073 108.436 40.1445C108.237 39.8816 108.105 39.5531 108.171 39.2246C108.303 38.3048 108.436 37.3192 108.569 36.3994C108.701 35.611 108.834 34.8882 108.9 34.0998C108.701 34.0998 108.502 34.0341 108.303 33.9684C108.37 34.0998 108.37 34.2969 108.303 34.494Z" fill="white"/>
<path d="M101.212 24.9015C100.748 24.9015 100.35 24.8358 99.8859 24.8358C99.1568 24.8358 98.4277 24.77 97.6986 24.77C97.1021 24.77 96.4393 24.7043 95.8428 24.7043C95.3788 24.7043 94.9148 24.8358 94.6497 25.23C94.5171 25.4271 94.3846 25.6242 94.252 25.7556C93.9869 26.0841 93.6555 26.2812 93.1915 26.3469C92.595 26.4126 91.9984 26.4783 91.4019 26.4783C90.3414 26.544 89.2809 26.6097 88.2204 26.7411C87.2925 26.8068 86.3645 26.8725 85.5029 26.9382C85.2378 26.9382 85.1715 27.0039 85.2378 27.2668C85.3041 27.661 85.3703 28.0552 85.3703 28.5151C85.3703 28.7779 85.4366 28.7779 85.7017 28.7779C86.0331 28.7122 86.3645 28.7122 86.7622 28.6465C87.7564 28.5151 88.817 28.4494 89.8112 28.318C90.8054 28.1866 91.8659 28.0552 92.8601 27.9238C93.4566 27.8581 93.9869 27.5953 94.3183 27.0696C94.3846 26.9382 94.4508 26.8068 94.5834 26.6754C94.716 26.4783 94.9148 26.2812 95.0474 26.1498C95.2462 25.887 95.5114 25.8213 95.8428 25.8213C96.9695 25.7556 98.0963 25.6899 99.2231 25.6899C99.8859 25.6899 100.482 25.6242 101.145 25.6242C101.145 25.4271 101.145 25.23 101.145 25.0986C101.212 24.9672 101.212 24.9015 101.212 24.9015Z" fill="white"/>
<path d="M97.1683 21.682C96.8369 21.6163 96.5055 21.5506 96.1741 21.4192C95.7764 21.3535 95.5113 21.4192 95.1799 21.6163C94.981 21.7477 94.8485 21.8791 94.6496 22.0105C94.3845 22.2076 94.0531 22.4704 93.7217 22.4704C93.4566 22.4704 93.1914 22.4047 92.9263 22.4047C92.1972 22.2733 91.5344 22.2076 90.8053 22.0762C89.8111 21.9448 88.8169 21.7477 87.8889 21.6163C87.1598 21.4849 86.4307 21.3535 85.7016 21.2878C85.4365 21.2221 85.4365 21.2878 85.4365 21.4849C85.3702 21.9448 85.3702 22.4047 85.304 22.7989C85.304 22.9303 85.304 23.0617 85.5028 23.0617C85.8342 23.1275 86.1656 23.1275 86.5633 23.1932C87.1598 23.2589 87.8226 23.3246 88.4192 23.3903C89.0157 23.456 89.546 23.5217 90.1425 23.5874C90.739 23.6531 91.3356 23.7188 91.9321 23.7845C92.3961 23.8502 92.86 23.8502 93.2577 23.9159C93.7217 23.9816 94.0531 23.7845 94.3845 23.5217C94.6496 23.2589 94.9148 23.0618 95.2462 22.7989C95.5113 22.6018 95.8427 22.4704 96.2404 22.5361C96.7044 22.6018 97.1683 22.6675 97.6323 22.7989C98.8916 23.0618 100.217 23.2589 101.477 23.5217C101.543 23.3246 101.543 23.1275 101.609 22.8646C100.018 22.4047 98.5602 22.0105 97.1683 21.682Z" fill="white"/>
<path d="M120.102 20.4994C121.295 19.9738 122.422 19.5139 123.615 18.9882C124.145 18.7911 124.477 18.3969 124.543 17.8056C124.543 17.7399 124.543 17.6085 124.609 17.5428C124.742 16.9515 124.941 16.4258 125.537 16.163C125.802 16.0316 126.067 15.9002 126.332 15.7031C128.122 14.6518 129.845 13.6663 131.635 12.6151C131.834 12.4836 132.033 12.4179 132.231 12.2865C132.298 12.2208 132.364 12.1551 132.298 12.0237C132.033 11.6295 131.768 11.2353 131.502 10.7754C131.436 10.644 131.304 10.644 131.171 10.7097C131.105 10.7097 131.105 10.7754 131.038 10.7754C129.58 11.6952 128.188 12.6151 126.73 13.5349C126.134 13.9291 125.471 14.3233 124.874 14.7833C124.41 15.0461 124.211 15.4403 124.079 15.9659C124.013 16.3601 123.946 16.7543 123.88 17.1486C123.814 17.4114 123.681 17.6742 123.416 17.8056C123.217 17.937 123.018 18.0027 122.82 18.1341C121.428 18.9225 120.036 19.6453 118.644 20.4337C118.776 20.6308 118.843 20.8279 118.909 21.025C119.24 20.8279 119.638 20.6965 120.102 20.4994Z" fill="white"/>
<path d="M118.113 31.2747C118.975 32.0632 119.837 32.7859 120.698 33.5743C121.03 33.8371 121.295 34.1 121.626 34.3628C122.024 34.6913 122.422 34.757 122.886 34.6256C123.084 34.5599 123.35 34.4942 123.548 34.4942C123.946 34.4285 124.278 34.4285 124.675 34.6913C125.669 35.414 126.73 36.1368 127.724 36.7938C128.851 37.5822 129.978 38.3707 131.038 39.1591C131.104 39.2248 131.171 39.2248 131.237 39.2905C131.237 39.2248 131.303 39.1591 131.303 39.1591C131.568 38.7649 131.834 38.305 132.099 37.9107C132.165 37.7793 132.165 37.7136 132.032 37.6479C131.767 37.4508 131.502 37.2537 131.171 37.1223C130.508 36.7281 129.845 36.2682 129.116 35.8739C127.989 35.1512 126.862 34.4285 125.736 33.7057C125.272 33.3772 124.741 33.3115 124.211 33.5086C123.88 33.64 123.482 33.7057 123.151 33.7714C122.753 33.8372 122.422 33.7714 122.157 33.5086C120.765 32.4574 119.306 31.4061 117.915 30.4206C117.782 30.6177 117.649 30.7491 117.517 30.9462C117.782 31.0119 117.915 31.1433 118.113 31.2747Z" fill="white"/>
<path d="M120.698 30.1577C121.626 30.6176 122.488 31.1433 123.416 31.6032C123.88 31.8003 124.277 31.8003 124.741 31.6032C124.94 31.4718 125.205 31.4061 125.404 31.2747C125.735 31.1433 126.001 31.0776 126.332 31.209C126.73 31.3404 127.061 31.4718 127.459 31.6032C128.718 32.0631 129.911 32.5887 131.17 33.1143C132.032 33.4429 132.894 33.7714 133.689 34.1656C133.954 34.2313 133.954 34.2313 134.087 34.0342C134.219 33.5743 134.418 33.1801 134.551 32.7201C134.617 32.5887 134.551 32.523 134.418 32.4573C133.954 32.3259 133.557 32.1288 133.093 31.9974C131.17 31.3404 129.315 30.6833 127.392 30.0263C126.862 29.8292 126.332 29.8949 125.868 30.1577C125.603 30.2891 125.338 30.4205 125.073 30.5519C124.675 30.749 124.211 30.8147 123.747 30.5519C123.416 30.4205 123.084 30.2891 122.819 30.1577C121.56 29.6321 120.3 29.1065 119.041 28.5151C118.975 28.7122 118.842 28.9094 118.776 29.1065C119.372 29.435 120.035 29.8292 120.698 30.1577Z" fill="white"/>
<path d="M122.024 22.5362C122.952 22.3391 123.814 22.142 124.741 22.0106C125.205 21.9449 125.537 21.6821 125.736 21.2222C125.868 20.9594 126.001 20.6966 126.133 20.4337C126.266 20.1052 126.597 19.9081 126.929 19.7767C127.061 19.711 127.194 19.711 127.326 19.6453C128.917 19.1197 130.574 18.6598 132.165 18.1341C132.894 17.937 133.623 17.6742 134.352 17.4771C134.617 17.4114 134.617 17.3457 134.551 17.1486C134.419 16.6887 134.22 16.2287 134.087 15.8345C134.021 15.7031 133.955 15.7031 133.822 15.7031C133.557 15.7688 133.292 15.9002 133.027 15.9659C130.906 16.6887 128.851 17.4771 126.73 18.1998C126.2 18.397 125.868 18.7255 125.669 19.2511C125.537 19.5796 125.338 19.9738 125.205 20.3023C125.073 20.6309 124.808 20.828 124.476 20.8937C124.344 20.9594 124.145 20.9594 124.012 21.0251C122.488 21.485 120.963 21.8792 119.439 22.3391C119.505 22.5362 119.572 22.7334 119.572 22.9305C120.367 22.8648 121.229 22.6677 122.024 22.5362Z" fill="white"/>
<path d="M119.704 25.0985C120.102 25.0985 120.566 25.1642 120.963 25.1642C121.692 25.1642 122.421 25.2299 123.15 25.2299C123.747 25.2299 124.41 25.2956 125.006 25.2956C125.47 25.2956 125.934 25.1642 126.199 24.77C126.332 24.5728 126.465 24.3757 126.597 24.2443C126.862 23.9158 127.194 23.7187 127.658 23.653C128.254 23.5873 128.851 23.5216 129.447 23.5216C130.508 23.4559 131.568 23.3902 132.629 23.2588C133.557 23.1931 134.485 23.1274 135.346 23.0617C135.611 23.0617 135.678 22.996 135.611 22.7332C135.545 22.3389 135.479 21.9447 135.479 21.4848C135.479 21.222 135.413 21.222 135.147 21.222C134.816 21.2877 134.485 21.2877 134.087 21.3534C133.093 21.4848 132.032 21.5505 131.038 21.6819C130.044 21.8133 128.983 21.9447 127.989 22.0761C127.392 22.1418 126.862 22.4046 126.531 22.9303C126.465 23.0617 126.398 23.1931 126.266 23.3245C126.133 23.5216 125.934 23.7187 125.802 23.8501C125.603 24.1129 125.338 24.1786 125.006 24.1786C123.88 24.2443 122.753 24.31 121.626 24.31C121.029 24.31 120.367 24.3757 119.77 24.3757C119.77 24.5728 119.77 24.7042 119.77 24.9014C119.704 25.0328 119.704 25.0328 119.704 25.0985Z" fill="white"/>
<path d="M135.479 26.8724C135.147 26.8067 134.816 26.8067 134.418 26.741C133.822 26.6753 133.159 26.6096 132.563 26.5439C132.032 26.4782 131.436 26.4125 130.839 26.3468C130.243 26.2811 129.646 26.2154 129.05 26.1497C128.586 26.084 128.122 26.084 127.724 26.0183C127.26 25.9526 126.929 26.1497 126.597 26.4125C126.332 26.6753 126.067 26.8724 125.736 27.1352C125.47 27.3323 125.139 27.4638 124.741 27.3981C124.277 27.3323 123.813 27.2666 123.349 27.1352C122.09 26.8724 120.831 26.6753 119.505 26.4125C119.439 26.6096 119.439 26.8067 119.373 27.0695C120.764 27.4638 122.223 27.858 123.615 28.2522C123.946 28.3179 124.277 28.3836 124.609 28.515C125.006 28.5807 125.272 28.515 125.603 28.3179C125.802 28.1865 125.934 28.0551 126.133 27.9237C126.398 27.7266 126.73 27.4638 127.061 27.4638C127.326 27.4638 127.591 27.5295 127.857 27.5295C128.586 27.6609 129.248 27.7266 129.978 27.858C130.972 27.9894 131.966 28.1865 132.894 28.3179C133.623 28.4493 134.352 28.5807 135.081 28.6464C135.346 28.7121 135.346 28.6464 135.346 28.4493C135.413 27.9894 135.413 27.5295 135.479 27.1352C135.678 27.0038 135.678 26.8724 135.479 26.8724Z" fill="white"/>
</g>
<defs>
<clipPath id="clip0_111_755">
<rect width="172" height="50" fill="white"/>
</clipPath>
</defs>
</svg>
