<svg width="138" height="113" viewBox="0 0 138 113" fill="none" xmlns="http://www.w3.org/2000/svg">
<path d="M0 73.4895V52.606L8.77984 76.0368L0 73.4895Z" fill="url(#paint0_linear_220_231)"/>
<path d="M104.931 38.8601V38.8672L104.918 38.8601H104.931Z" fill="#FF5722"/>
<path d="M137.947 73.4893V64.7639L133.535 75.631L137.947 73.4893Z" fill="#C3CCE3"/>
<path d="M104.931 30.7544V30.7615L104.918 30.7544H104.931Z" fill="#FF5722"/>
<path d="M123.764 16.2461V40.5623L68.9795 64.764V40.4487L123.764 16.2461Z" fill="url(#paint1_linear_220_231)"/>
<path d="M104.93 6.44474L104.919 6.43818C94.4471 2.73882 82.1548 0.608398 68.9775 0.608398C50.0215 0.608398 32.8484 5.02885 20.3796 12.1759L68.9775 40.4479L123.762 16.2462C118.597 12.3449 112.205 9.0127 104.93 6.44474Z" fill="url(#paint2_linear_220_231)"/>
<path d="M20.3816 12.177V28.3875L68.9794 56.6594V40.4489L20.3816 12.177Z" fill="url(#paint3_linear_220_231)"/>
<path d="M68.9794 72.8698L28.0587 104.94H28.0475C11.033 97.6865 0 86.0194 0 72.8698C0 61.8178 7.78887 51.8173 20.3815 44.5979L68.9794 72.8698Z" fill="url(#paint4_linear_220_231)"/>
<path d="M68.9794 52.6059L28.0587 84.6767H28.0475C11.033 77.4235 0 65.7555 0 52.6059C0 41.5538 7.78887 31.5543 20.3815 24.334L68.9794 52.6059Z" fill="url(#paint5_linear_220_231)"/>
<path d="M68.9795 52.606V64.7641L28.0569 96.8349L28.0457 84.6768L68.9795 52.606Z" fill="url(#paint6_linear_220_231)"/>
<path d="M137.948 72.8696C137.948 94.8761 107.074 112.716 68.9794 112.716C53.6504 112.716 39.5018 109.83 28.0569 104.939V96.8347L68.9794 72.8696L123.764 48.667C132.666 55.3775 137.948 63.763 137.948 72.8696Z" fill="#D8D8D8"/>
<path d="M137.948 64.7639C137.948 86.7686 107.074 104.611 68.9794 104.611C53.6504 104.611 39.5018 101.726 28.0569 96.8347L68.9794 64.7639L123.764 40.5623C132.666 47.2727 137.948 55.6573 137.948 64.7639Z" fill="url(#paint7_linear_220_231)"/>
<path d="M66.1302 14.7156L64.3319 17.0493C64.9999 17.2415 65.5307 17.5801 65.9242 18.0651C66.3269 18.5502 66.5283 19.1267 66.5283 19.7948C66.5283 20.7832 66.1942 21.5565 65.5261 22.1148C64.8764 22.673 64.0665 22.9522 63.0964 22.9522C62.3368 22.9522 61.6641 22.7783 61.0784 22.4305C60.4927 22.0736 60.0672 21.5703 59.8018 20.9205L61.4216 19.987C61.6504 20.7283 62.2087 21.0989 63.0964 21.0989C63.5814 21.0989 63.9566 20.9845 64.222 20.7557C64.4966 20.5178 64.6339 20.1975 64.6339 19.7948C64.6339 19.4013 64.4966 19.0856 64.222 18.8476C63.9566 18.6097 63.5814 18.4907 63.0964 18.4907H62.6845L61.957 17.3925L63.8514 14.9215H60.09V13.1507H66.1302V14.7156Z" fill="white"/>
<path d="M73.3425 14.7156L71.5442 17.0493C72.2123 17.2415 72.7431 17.5801 73.1366 18.0651C73.5393 18.5502 73.7406 19.1267 73.7406 19.7948C73.7406 20.7832 73.4066 21.5565 72.7385 22.1148C72.0887 22.673 71.2788 22.9522 70.3087 22.9522C69.5491 22.9522 68.8765 22.7783 68.2908 22.4305C67.705 22.0736 67.2795 21.5703 67.0141 20.9205L68.6339 19.987C68.8627 20.7283 69.421 21.0989 70.3087 21.0989C70.7937 21.0989 71.169 20.9845 71.4344 20.7557C71.7089 20.5178 71.8462 20.1975 71.8462 19.7948C71.8462 19.4013 71.7089 19.0856 71.4344 18.8476C71.169 18.6097 70.7937 18.4907 70.3087 18.4907H69.8969L69.1693 17.3925L71.0637 14.9215H67.3024V13.1507H73.3425V14.7156Z" fill="white"/>
<path d="M78.3482 16.8434C77.8998 17.2735 77.3507 17.4886 76.7009 17.4886C76.042 17.4886 75.4883 17.2689 75.0399 16.8297C74.6006 16.3904 74.381 15.855 74.381 15.2235C74.381 14.5921 74.6006 14.0567 75.0399 13.6174C75.4975 13.1781 76.0511 12.9585 76.7009 12.9585C77.3598 12.9585 77.9089 13.1781 78.3482 13.6174C78.7875 14.0384 79.0071 14.5738 79.0071 15.2235C79.0071 15.8642 78.7875 16.4041 78.3482 16.8434ZM76.1793 21.7853L75.3556 21.3049L81.6154 14.345L82.4528 14.8117L76.1793 21.7853ZM76.0695 15.855C76.2342 16.0197 76.4401 16.1021 76.6872 16.1021C76.9343 16.1021 77.1402 16.0197 77.3049 15.855C77.4697 15.6811 77.552 15.4706 77.552 15.2235C77.552 14.9764 77.4697 14.7705 77.3049 14.6058C77.1402 14.4411 76.9343 14.3587 76.6872 14.3587C76.4401 14.3587 76.2342 14.4411 76.0695 14.6058C75.9139 14.7705 75.8361 14.9764 75.8361 15.2235C75.8361 15.4706 75.9139 15.6811 76.0695 15.855ZM83.6471 20.6597C83.6471 21.2911 83.4274 21.8265 82.9881 22.2658C82.5489 22.7051 81.9998 22.9247 81.3408 22.9247C80.6819 22.9247 80.1328 22.7051 79.6935 22.2658C79.2542 21.8265 79.0346 21.2911 79.0346 20.6597C79.0346 20.0282 79.2542 19.4928 79.6935 19.0535C80.1328 18.6142 80.6819 18.3946 81.3408 18.3946C81.9998 18.3946 82.5489 18.6142 82.9881 19.0535C83.4274 19.4928 83.6471 20.0282 83.6471 20.6597ZM81.9448 21.2911C82.1096 21.1172 82.1919 20.9068 82.1919 20.6597C82.1919 20.4126 82.1096 20.2066 81.9448 20.0419C81.7893 19.868 81.5879 19.7811 81.3408 19.7811C81.0937 19.7811 80.8878 19.868 80.7231 20.0419C80.5675 20.2066 80.4897 20.4126 80.4897 20.6597C80.4897 20.9068 80.5675 21.1172 80.7231 21.2911C80.8878 21.4559 81.0937 21.5382 81.3408 21.5382C81.5879 21.5382 81.7893 21.4559 81.9448 21.2911Z" fill="white"/>
<path d="M24.9475 52.6951L23.1492 55.0288C23.8173 55.221 24.3481 55.5596 24.7416 56.0446C25.1443 56.5297 25.3456 57.1062 25.3456 57.7743C25.3456 58.7627 25.0116 59.536 24.3435 60.0943C23.6938 60.6525 22.8838 60.9317 21.9138 60.9317C21.1542 60.9317 20.4815 60.7578 19.8958 60.41C19.3101 60.0531 18.8845 59.5497 18.6191 58.9L20.239 57.9665C20.4678 58.7078 21.026 59.0784 21.9138 59.0784C22.3988 59.0784 22.774 58.964 23.0394 58.7352C23.314 58.4973 23.4512 58.177 23.4512 57.7743C23.4512 57.3808 23.314 57.0651 23.0394 56.8271C22.774 56.5892 22.3988 56.4702 21.9138 56.4702H21.5019L20.7744 55.372L22.6688 52.901H18.9074V51.1302H24.9475V52.6951Z" fill="white"/>
<path d="M32.7922 57.3488H33.8218V59.1059H32.7922V60.7395H30.8841V59.1059H26.3402V57.3488L29.5388 51.1302H31.5704L28.3857 57.3488H30.8841V55.07H32.7922V57.3488Z" fill="white"/>
<path d="M37.9163 54.8229C37.4679 55.253 36.9188 55.4681 36.269 55.4681C35.6101 55.4681 35.0564 55.2484 34.608 54.8092C34.1687 54.3699 33.9491 53.8345 33.9491 53.203C33.9491 52.5716 34.1687 52.0362 34.608 51.5969C35.0656 51.1576 35.6193 50.938 36.269 50.938C36.928 50.938 37.4771 51.1576 37.9163 51.5969C38.3556 52.0179 38.5753 52.5533 38.5753 53.203C38.5753 53.8437 38.3556 54.3836 37.9163 54.8229ZM35.7474 59.7648L34.9237 59.2843L41.1835 52.3245L42.0209 52.7912L35.7474 59.7648ZM35.6376 53.8345C35.8023 53.9992 36.0082 54.0816 36.2553 54.0816C36.5024 54.0816 36.7083 53.9992 36.873 53.8345C37.0378 53.6606 37.1201 53.4501 37.1201 53.203C37.1201 52.9559 37.0378 52.75 36.873 52.5853C36.7083 52.4206 36.5024 52.3382 36.2553 52.3382C36.0082 52.3382 35.8023 52.4206 35.6376 52.5853C35.482 52.75 35.4042 52.9559 35.4042 53.203C35.4042 53.4501 35.482 53.6606 35.6376 53.8345ZM43.2152 58.6391C43.2152 59.2706 42.9955 59.806 42.5562 60.2453C42.117 60.6846 41.5679 60.9042 40.9089 60.9042C40.25 60.9042 39.7009 60.6846 39.2616 60.2453C38.8224 59.806 38.6027 59.2706 38.6027 58.6391C38.6027 58.0077 38.8224 57.4723 39.2616 57.033C39.7009 56.5937 40.25 56.3741 40.9089 56.3741C41.5679 56.3741 42.117 56.5937 42.5562 57.033C42.9955 57.4723 43.2152 58.0077 43.2152 58.6391ZM41.513 59.2706C41.6777 59.0967 41.76 58.8862 41.76 58.6391C41.76 58.3921 41.6777 58.1861 41.513 58.0214C41.3574 57.8475 41.156 57.7606 40.9089 57.7606C40.6618 57.7606 40.4559 57.8475 40.2912 58.0214C40.1356 58.1861 40.0578 58.3921 40.0578 58.6391C40.0578 58.8862 40.1356 59.0967 40.2912 59.2706C40.4559 59.4353 40.6618 59.5177 40.9089 59.5177C41.156 59.5177 41.3574 59.4353 41.513 59.2706Z" fill="white"/>
<defs>
<linearGradient id="paint0_linear_220_231" x1="281.131" y1="16393" x2="4838.1" y2="18119.4" gradientUnits="userSpaceOnUse">
<stop stop-color="#2979DE"/>
<stop offset="1" stop-color="#16D6CC"/>
</linearGradient>
<linearGradient id="paint1_linear_220_231" x1="63.9815" y1="55.6452" x2="119.484" y2="29.7304" gradientUnits="userSpaceOnUse">
<stop stop-color="#FF338A"/>
<stop offset="1" stop-color="#FF525C"/>
</linearGradient>
<linearGradient id="paint2_linear_220_231" x1="20.3815" y1="20.5286" x2="123.764" y2="20.5286" gradientUnits="userSpaceOnUse">
<stop stop-color="#FF539F"/>
<stop offset="1" stop-color="#FF7875"/>
</linearGradient>
<linearGradient id="paint3_linear_220_231" x1="8601.79" y1="8256.99" x2="32593.8" y2="23547.3" gradientUnits="userSpaceOnUse">
<stop stop-color="#FF338A"/>
<stop offset="1" stop-color="#FF525C"/>
</linearGradient>
<linearGradient id="paint4_linear_220_231" x1="12.8864" y1="56.3091" x2="40.4439" y2="84.1568" gradientUnits="userSpaceOnUse">
<stop stop-color="#2979DE"/>
<stop offset="1" stop-color="#16D6CC"/>
</linearGradient>
<linearGradient id="paint5_linear_220_231" x1="0" y1="54.5053" x2="68.9794" y2="54.5053" gradientUnits="userSpaceOnUse">
<stop stop-color="#4188EE"/>
<stop offset="0.15" stop-color="#4BA0EA"/>
<stop offset="0.37" stop-color="#57BEE5"/>
<stop offset="0.59" stop-color="#5FD3E1"/>
<stop offset="0.8" stop-color="#64E0DF"/>
<stop offset="1" stop-color="#66E4DE"/>
</linearGradient>
<linearGradient id="paint6_linear_220_231" x1="12261.5" y1="34963.8" x2="30116.9" y2="34963.8" gradientUnits="userSpaceOnUse">
<stop stop-color="#2979DE"/>
<stop offset="1" stop-color="#16D6CC"/>
</linearGradient>
<linearGradient id="paint7_linear_220_231" x1="132.113" y1="54.5786" x2="40.2174" y2="96.0462" gradientUnits="userSpaceOnUse">
<stop stop-color="#E7E7E7"/>
<stop offset="1" stop-color="white"/>
</linearGradient>
</defs>
</svg>
