<svg width="59" height="51" viewBox="0 0 59 51" fill="none" xmlns="http://www.w3.org/2000/svg">
<path d="M8.5625 2.46875L50.4375 48.5312" stroke="#0066FF" stroke-width="4.1875" stroke-linecap="round" stroke-linejoin="round"/>
<path d="M24.0378 7.04124C25.8466 6.7849 27.6711 6.65653 29.4979 6.65707C39.5827 6.63496 49.2667 10.6032 56.4362 17.6955" stroke="#0066FF" stroke-width="4.1875" stroke-linecap="round" stroke-linejoin="round"/>
<path d="M2.55957 17.6955C6.11481 14.1784 10.3264 11.394 14.955 9.50049" stroke="#0066FF" stroke-width="4.1875" stroke-linecap="round" stroke-linejoin="round"/>
<path d="M35.8125 19.9932C40.2456 21.1013 44.3016 23.375 47.56 26.5785" stroke="#0066FF" stroke-width="4.1875" stroke-linecap="round" stroke-linejoin="round"/>
<path d="M11.4358 26.5784C14.9643 23.1096 19.4217 20.7366 24.2695 19.7462" stroke="#0066FF" stroke-width="4.1875" stroke-linecap="round" stroke-linejoin="round"/>
<path d="M20.3188 35.4616C22.6791 33.2085 25.7852 31.9017 29.0463 31.7899C32.3074 31.6781 35.4957 32.769 38.0048 34.8552" stroke="#0066FF" stroke-width="4.1875" stroke-linecap="round" stroke-linejoin="round"/>
<path d="M29.5 47.4844C31.2345 47.4844 32.6406 46.0783 32.6406 44.3438C32.6406 42.6092 31.2345 41.2031 29.5 41.2031C27.7655 41.2031 26.3594 42.6092 26.3594 44.3438C26.3594 46.0783 27.7655 47.4844 29.5 47.4844Z" fill="#0066FF"/>
</svg>
