<svg width="53" height="53" viewBox="0 0 53 53" fill="none" xmlns="http://www.w3.org/2000/svg">
<path d="M26.5469 50.5293H4.47526C3.9431 50.5293 3.43274 50.3179 3.05644 49.9416C2.68015 49.5653 2.46875 49.0549 2.46875 48.5228V26.4511C2.46875 23.2891 3.09155 20.1581 4.30158 17.2368C5.51162 14.3156 7.2852 11.6612 9.52106 9.42535C11.7569 7.1895 14.4113 5.41592 17.3325 4.20588C20.2538 2.99584 23.3848 2.37305 26.5468 2.37305H26.5469C29.7089 2.37305 32.8399 2.99585 35.7612 4.20589C38.6825 5.41592 41.3368 7.18951 43.5727 9.42537C45.8085 11.6612 47.5821 14.3156 48.7922 17.2369C50.0022 20.1582 50.625 23.2892 50.625 26.4512V26.4512C50.625 32.8371 48.0882 38.9615 43.5727 43.477C39.0572 47.9925 32.9328 50.5293 26.5469 50.5293Z" stroke="#0066FF" stroke-width="4.1875" stroke-linecap="round" stroke-linejoin="round"/>
<path d="M18.172 23.3105H33.8751" stroke="#0066FF" stroke-width="4.1875" stroke-linecap="round" stroke-linejoin="round"/>
<path d="M18.172 31.6855H33.8751" stroke="#0066FF" stroke-width="4.1875" stroke-linecap="round" stroke-linejoin="round"/>
</svg>
