<svg width="57" height="57" viewBox="0 0 57 57" fill="none" xmlns="http://www.w3.org/2000/svg">
<path d="M28.5 41.0625C35.4381 41.0625 41.0625 35.4381 41.0625 28.5C41.0625 21.5619 35.4381 15.9375 28.5 15.9375C21.5619 15.9375 15.9375 21.5619 15.9375 28.5C15.9375 35.4381 21.5619 41.0625 28.5 41.0625Z" stroke="#0066FF" stroke-width="4.1875" stroke-linecap="round" stroke-linejoin="round"/>
<path d="M27.1579 6.55583L22.2194 2.85306C21.9544 2.65373 21.6458 2.52023 21.3192 2.46355C20.9925 2.40687 20.657 2.42863 20.3403 2.52706C18.8108 3.00601 17.3269 3.61997 15.9062 4.36167C15.612 4.51594 15.3588 4.73795 15.1674 5.00936C14.976 5.28078 14.8519 5.59383 14.8053 5.92266L13.9323 12.034C13.5995 12.329 13.2737 12.6358 12.9549 12.9544C12.6362 13.2732 12.3293 13.599 12.0343 13.9321L12.0342 13.9322L5.92387 14.806C5.59556 14.8524 5.28298 14.9762 5.0119 15.1671C4.74081 15.358 4.51898 15.6106 4.36468 15.9041C3.62184 17.3243 3.00669 18.8077 2.5265 20.3368C2.42762 20.6539 2.40555 20.9899 2.46213 21.3172C2.51871 21.6445 2.6523 21.9536 2.85189 22.219L6.55596 27.1577C6.52923 27.6016 6.5158 28.0489 6.51567 28.4997C6.51567 28.9504 6.52911 29.3978 6.55598 29.8419L6.55596 29.8421L2.85318 34.7806C2.65385 35.0456 2.52035 35.3541 2.46367 35.6808C2.40699 36.0075 2.42876 36.343 2.52718 36.6596C3.00614 38.1891 3.62009 39.673 4.36179 41.0938C4.51606 41.3879 4.73807 41.6411 5.00949 41.8325C5.2809 42.024 5.59395 42.1481 5.92279 42.1947L12.0342 43.0677C12.3291 43.4004 12.6359 43.7262 12.9546 44.045C13.2733 44.3638 13.5991 44.6706 13.9322 44.9657L13.9323 44.9658L14.8061 51.0761C14.8525 51.4044 14.9763 51.717 15.1672 51.9881C15.3581 52.2592 15.6107 52.481 15.9042 52.6353C17.3244 53.3781 18.8078 53.9933 20.3369 54.4735C20.654 54.5724 20.99 54.5944 21.3173 54.5378C21.6446 54.4813 21.9537 54.3477 22.2191 54.1481L27.1578 50.444C27.6017 50.4707 28.049 50.4842 28.4998 50.4843C28.9505 50.4843 29.3979 50.4709 29.8421 50.444L29.8422 50.444L34.7807 54.1468C35.0457 54.3461 35.3542 54.4796 35.6809 54.5363C36.0076 54.593 36.3431 54.5712 36.6597 54.4728C38.1892 53.9938 39.6731 53.3799 41.0939 52.6382C41.3881 52.4839 41.6413 52.2619 41.8327 51.9905C42.0241 51.7191 42.1482 51.406 42.1948 51.0772L43.0678 44.9658C43.4006 44.6708 43.7264 44.364 44.0452 44.0454C44.3639 43.7267 44.6708 43.4008 44.9658 43.0678L44.9659 43.0677L51.0762 42.1939C51.4045 42.1475 51.7171 42.0237 51.9882 41.8328C52.2593 41.6418 52.4811 41.3892 52.6354 41.0957C53.3783 39.6755 53.9934 38.1921 54.4736 36.663C54.5725 36.346 54.5945 36.0099 54.538 35.6827C54.4814 35.3554 54.3478 35.0463 54.1482 34.7808L50.4441 29.8421C50.4709 29.3982 50.4843 28.9509 50.4844 28.5002C50.4844 28.0495 50.471 27.602 50.4441 27.1579L50.4441 27.1577L54.1469 22.2192C54.3462 21.9543 54.4797 21.6457 54.5364 21.319C54.5931 20.9923 54.5713 20.6569 54.4729 20.3402C53.994 18.8107 53.38 17.3268 52.6383 15.906C52.484 15.6119 52.262 15.3587 51.9906 15.1673C51.7192 14.9759 51.4061 14.8518 51.0773 14.8052L44.9659 13.9322C44.671 13.5994 44.3642 13.2736 44.0455 12.9548C43.7268 12.6361 43.401 12.3292 43.0679 12.0342L43.0678 12.034L42.194 5.92375C42.1476 5.59544 42.0238 5.28286 41.8329 5.01177C41.642 4.74069 41.3893 4.51886 41.0959 4.36456C39.6757 3.62172 38.1923 3.00657 36.6631 2.52638C36.3461 2.4275 36.0101 2.40543 35.6828 2.46201C35.3555 2.51858 35.0464 2.65218 34.781 2.85176L29.8422 6.55583C29.3983 6.52911 28.951 6.51568 28.5003 6.51555C28.0496 6.51555 27.6022 6.52898 27.158 6.55585L27.1579 6.55583Z" stroke="#0066FF" stroke-width="4.1875" stroke-linecap="round" stroke-linejoin="round"/>
</svg>
