<svg width="53" height="53" viewBox="0 0 53 53" fill="none" xmlns="http://www.w3.org/2000/svg">
<path fill-rule="evenodd" clip-rule="evenodd" d="M26.5468 4.4668C23.6598 4.4668 20.8011 5.03544 18.1338 6.14025C15.4665 7.24507 13.043 8.86442 11.0016 10.9059C8.96013 12.9473 7.34077 15.3708 6.23596 18.0381C5.13114 20.7053 4.5625 23.5641 4.5625 26.4511V48.4355H26.5469C32.3775 48.4355 37.9693 46.1193 42.0922 41.9965C46.215 37.8736 48.5312 32.2818 48.5312 26.4512C48.5312 23.5642 47.9626 20.7054 46.8578 18.0381C45.753 15.3709 44.1336 12.9473 42.0922 10.9059C40.0507 8.86443 37.6272 7.24508 34.9599 6.14026C32.2927 5.03544 29.4339 4.4668 26.5468 4.4668ZM16.5313 2.27151C19.7066 0.95625 23.1099 0.279296 26.5468 0.279297C29.9838 0.279297 33.3871 0.956253 36.5624 2.27151C39.7377 3.58677 42.6229 5.51458 45.0532 7.94486C47.4835 10.3751 49.4113 13.2603 50.7265 16.4356C52.0418 19.6109 52.7188 23.0142 52.7188 26.4512C52.7188 33.3924 49.9614 40.0493 45.0532 44.9575C40.145 49.8657 33.4881 52.623 26.5469 52.623H4.47526C3.38781 52.623 2.34489 52.1911 1.57594 51.4221C0.806989 50.6532 0.375 49.6102 0.375 48.5228V26.4511C0.375 23.0142 1.05195 19.6109 2.36721 16.4356C3.68247 13.2603 5.61027 10.3751 8.04055 7.94485C10.4708 5.51457 13.356 3.58676 16.5313 2.27151Z" fill="#0066FF"/>
<path fill-rule="evenodd" clip-rule="evenodd" d="M29.5 23.4167C30.005 23.4167 30.4667 23.702 30.6926 24.1537L35.9426 34.6537C36.2719 35.3124 36.0049 36.1133 35.3463 36.4426C34.6876 36.7719 33.8867 36.5049 33.5574 35.8463L29.5 27.7314L25.4426 35.8463C25.1133 36.5049 24.3124 36.7719 23.6537 36.4426C22.9951 36.1133 22.7281 35.3124 23.0574 34.6537L28.3074 24.1537C28.5333 23.702 28.995 23.4167 29.5 23.4167Z" fill="#0066FF"/>
<path fill-rule="evenodd" clip-rule="evenodd" d="M24.4167 32.25C24.4167 31.5136 25.0136 30.9167 25.75 30.9167H33.25C33.9864 30.9167 34.5833 31.5136 34.5833 32.25C34.5833 32.9864 33.9864 33.5834 33.25 33.5834H25.75C25.0136 33.5834 24.4167 32.9864 24.4167 32.25Z" fill="#0066FF"/>
<path fill-rule="evenodd" clip-rule="evenodd" d="M21.25 16.6667C21.9864 16.6667 22.5833 17.2636 22.5833 18V20.25C22.5833 20.9864 21.9864 21.5834 21.25 21.5834C20.5136 21.5834 19.9167 20.9864 19.9167 20.25V18C19.9167 17.2636 20.5136 16.6667 21.25 16.6667Z" fill="#0066FF"/>
<path fill-rule="evenodd" clip-rule="evenodd" d="M13.9167 20.25C13.9167 19.5136 14.5136 18.9167 15.25 18.9167H27.25C27.9864 18.9167 28.5833 19.5136 28.5833 20.25C28.5833 20.9864 27.9864 21.5833 27.25 21.5833H15.25C14.5136 21.5833 13.9167 20.9864 13.9167 20.25Z" fill="#0066FF"/>
<path fill-rule="evenodd" clip-rule="evenodd" d="M24.25 18.9167C24.9864 18.9167 25.5833 19.5136 25.5833 20.25C25.5833 22.9906 24.4946 25.6189 22.5568 27.5568C20.6189 29.4947 17.9906 30.5833 15.25 30.5833C14.5136 30.5833 13.9167 29.9864 13.9167 29.25C13.9167 28.5136 14.5136 27.9167 15.25 27.9167C17.2833 27.9167 19.2334 27.1089 20.6712 25.6712C22.1089 24.2334 22.9167 22.2833 22.9167 20.25C22.9167 19.5136 23.5136 18.9167 24.25 18.9167Z" fill="#0066FF"/>
<path fill-rule="evenodd" clip-rule="evenodd" d="M18.3174 21.9932C19.0115 21.7473 19.7736 22.1106 20.0195 22.8047C20.5489 24.299 21.5284 25.5926 22.8231 26.5074C24.1178 27.4223 25.6641 27.9135 27.2494 27.9135C27.9858 27.9135 28.5828 28.5104 28.5828 29.2468C28.5828 29.9832 27.9858 30.5801 27.2494 30.5801C25.113 30.5801 23.029 29.9182 21.2842 28.6852C19.5394 27.4523 18.2194 25.7091 17.5059 23.6953C17.26 23.0012 17.6233 22.2392 18.3174 21.9932Z" fill="#0066FF"/>
</svg>
