<svg width="67" height="67" viewBox="0 0 67 67" fill="none" xmlns="http://www.w3.org/2000/svg">
<path d="M33.5 33.5V8.375" stroke="#0066FF" stroke-width="4.1875" stroke-linecap="round" stroke-linejoin="round"/>
<path d="M55.2587 20.9375L11.741 46.0625" stroke="#0066FF" stroke-width="4.1875" stroke-linecap="round" stroke-linejoin="round"/>
<path d="M8.79397 38.0932C7.70615 32.2061 8.75278 26.1241 11.7459 20.9393C14.739 15.7545 19.4826 11.8066 25.1247 9.80469V28.6647L8.79397 38.0932Z" stroke="#0066FF" stroke-width="4.1875" stroke-linecap="round" stroke-linejoin="round"/>
<path d="M33.5001 8.375C37.902 8.37581 42.2265 9.53312 46.0404 11.731C49.8544 13.9289 53.024 17.0903 55.2318 20.8986C57.4396 24.7068 58.6081 29.0283 58.6203 33.4302C58.6325 37.8321 57.4881 42.16 55.3015 45.9805C53.1149 49.8009 49.9629 52.9799 46.1612 55.1989C42.3595 57.418 38.0415 58.5993 33.6396 58.6246C29.2378 58.6499 24.9065 57.5182 21.0796 55.3429C17.2527 53.1676 14.0644 50.0251 11.8341 46.23" stroke="#0066FF" stroke-width="4.1875" stroke-linecap="round" stroke-linejoin="round"/>
</svg>
