<svg width="67" height="67" viewBox="0 0 67 67" fill="none" xmlns="http://www.w3.org/2000/svg">
<path d="M25.125 58.625H41.875" stroke="#0066FF" stroke-width="4.1875" stroke-linecap="round" stroke-linejoin="round"/>
<path d="M14.7095 29.3125C14.7026 26.8403 15.1836 24.3911 16.1248 22.1051C17.0661 19.8191 18.4492 17.7413 20.1949 15.9908C21.9405 14.2403 24.0144 12.8514 26.2978 11.9037C28.5811 10.9561 31.029 10.4683 33.5012 10.4683C35.9733 10.4683 38.4212 10.9561 40.7046 11.9037C42.9879 12.8514 45.0618 14.2403 46.8075 15.9908C48.5531 17.7413 49.9362 19.8191 50.8775 22.1051C51.8187 24.3911 52.2997 26.8403 52.2928 29.3125V29.3125C52.2928 38.6861 54.2539 44.1255 55.9812 47.0984C56.1673 47.416 56.2663 47.7772 56.2683 48.1453C56.2702 48.5134 56.1751 48.8756 55.9924 49.1952C55.8098 49.5148 55.546 49.7807 55.2279 49.9658C54.9097 50.151 54.5483 50.249 54.1802 50.25H12.8201C12.4519 50.249 12.0904 50.151 11.7722 49.9658C11.454 49.7805 11.1903 49.5147 11.0077 49.195C10.825 48.8753 10.7299 48.5131 10.732 48.1449C10.734 47.7767 10.8331 47.4156 11.0193 47.0979C12.7475 44.1249 14.7095 38.6856 14.7095 29.3125H14.7095Z" stroke="#0066FF" stroke-width="4.1875" stroke-linecap="round" stroke-linejoin="round"/>
<path d="M48.0076 6.2782C52.268 8.96777 55.7023 12.7823 57.9315 17.3006" stroke="#0066FF" stroke-width="4.1875" stroke-linecap="round" stroke-linejoin="round"/>
<path d="M9.06812 17.3006C11.2973 12.7823 14.7317 8.96777 18.9921 6.2782" stroke="#0066FF" stroke-width="4.1875" stroke-linecap="round" stroke-linejoin="round"/>
</svg>
