<svg width="67" height="67" viewBox="0 0 67 67" fill="none" xmlns="http://www.w3.org/2000/svg">
<path d="M41.4062 29.5938L29.5938 41.4062" stroke="#0066FF" stroke-width="3.5" stroke-linecap="round" stroke-linejoin="round"/>
<path d="M31.2344 33.5312C32.5029 33.5312 33.5312 32.5029 33.5312 31.2344C33.5312 29.9658 32.5029 28.9375 31.2344 28.9375C29.9658 28.9375 28.9375 29.9658 28.9375 31.2344C28.9375 32.5029 29.9658 33.5312 31.2344 33.5312Z" stroke="#0066FF" stroke-width="3.5" stroke-miterlimit="10"/>
<path d="M39.7656 42.0625C41.0342 42.0625 42.0625 41.0342 42.0625 39.7656C42.0625 38.4971 41.0342 37.4688 39.7656 37.4688C38.4971 37.4688 37.4688 38.4971 37.4688 39.7656C37.4688 41.0342 38.4971 42.0625 39.7656 42.0625Z" stroke="#0066FF" stroke-width="3.5" stroke-miterlimit="10"/>
<path d="M32.1039 6.77296L10.9951 10.9947L6.77332 32.1035C6.70573 32.4415 6.72262 32.791 6.82251 33.1209C6.92239 33.4508 7.10218 33.7509 7.34591 33.9946L34.6832 61.3319C34.8776 61.5263 35.1084 61.6805 35.3624 61.7858C35.6164 61.891 35.8887 61.9451 36.1637 61.9451C36.4386 61.9451 36.7109 61.891 36.9649 61.7858C37.2189 61.6805 37.4497 61.5263 37.6442 61.3319L61.3323 37.6438C61.5267 37.4494 61.6809 37.2186 61.7861 36.9645C61.8913 36.7105 61.9455 36.4383 61.9455 36.1633C61.9455 35.8883 61.8913 35.6161 61.7861 35.3621C61.6809 35.108 61.5267 34.8772 61.3323 34.6828L33.995 7.34555C33.7513 7.10181 33.4511 6.92203 33.1212 6.82214C32.7913 6.72225 32.4419 6.70536 32.1039 6.77296V6.77296Z" stroke="#0066FF" stroke-width="4.1875" stroke-linecap="round" stroke-linejoin="round"/>
<path d="M21.9844 25.125C23.7189 25.125 25.125 23.7189 25.125 21.9844C25.125 20.2499 23.7189 18.8438 21.9844 18.8438C20.2499 18.8438 18.8438 20.2499 18.8438 21.9844C18.8438 23.7189 20.2499 25.125 21.9844 25.125Z" fill="#0066FF"/>
</svg>
