<svg width="67" height="67" viewBox="0 0 67 67" fill="none" xmlns="http://www.w3.org/2000/svg">
<path d="M6.28125 48.1562V42.1704C6.28125 27.1271 18.3605 14.7085 33.4037 14.6564C36.9862 14.6437 40.536 15.3384 43.8494 16.7006C47.1629 18.0628 50.1748 20.0657 52.7125 22.5944C55.2502 25.1232 57.2637 28.128 58.6376 31.4366C60.0115 34.7452 60.7187 38.2925 60.7188 41.875V48.1562C60.7188 48.7115 60.4982 49.2441 60.1055 49.6368C59.7129 50.0294 59.1803 50.25 58.625 50.25H8.375C7.8197 50.25 7.28715 50.0294 6.8945 49.6368C6.50184 49.2441 6.28125 48.7115 6.28125 48.1562Z" stroke="#0066FF" stroke-width="4.1875" stroke-linecap="round" stroke-linejoin="round"/>
<path d="M33.5 14.6562V23.0312" stroke="#0066FF" stroke-width="4.1875" stroke-linecap="round" stroke-linejoin="round"/>
<path d="M7.2085 34.8303L15.2981 36.9979" stroke="#0066FF" stroke-width="4.1875" stroke-linecap="round" stroke-linejoin="round"/>
<path d="M59.7913 34.8303L51.7017 36.9979" stroke="#0066FF" stroke-width="4.1875" stroke-linecap="round" stroke-linejoin="round"/>
<path d="M27.0735 50.25L44.9712 26.9253" stroke="#0066FF" stroke-width="4.1875" stroke-linecap="round" stroke-linejoin="round"/>
</svg>
